<svg xmlns="http://www.w3.org/2000/svg" xmlns:xlink="http://www.w3.org/1999/xlink" width="786.895" height="333.658" viewBox="0 0 786.895 333.658"><defs><clipPath id="a"><rect width="786.895" height="333.658" fill="none"/></clipPath></defs><g transform="translate(-290 -162.598)"><g transform="translate(508.822 292.045)"><path d="M366.79,348.95H353.839v25.993H327.846V348.95H262.909L277.4,245.069h25.993l-11.321,77.979h35.774V258.111h25.992v64.936H366.79Z" transform="translate(-262.909 -243.257)" fill="#272727"/><path d="M477.916,310.13q0,18.475-4.077,31.246T462.7,362.025a41.015,41.015,0,0,1-16.529,11.366,58.112,58.112,0,0,1-20.241,3.487,56.791,56.791,0,0,1-20.243-3.578A41.276,41.276,0,0,1,389.2,361.8q-7.02-7.925-11.1-20.649t-4.076-31.019q0-18.477,4.076-31.2t11.1-20.605a41.063,41.063,0,0,1,16.483-11.411,57.415,57.415,0,0,1,20.243-3.532,56.8,56.8,0,0,1,20.241,3.578A41.506,41.506,0,0,1,462.7,258.506q7.065,7.971,11.139,20.65T477.916,310.13Zm-24.726,0q0-21.645-7.2-32.151T425.93,267.472q-12.771,0-19.835,10.416T399.03,310.13q0,21.645,7.065,32.151t19.835,10.506a25,25,0,0,0,11.5-2.581,22.51,22.51,0,0,0,8.56-7.834,40.364,40.364,0,0,0,5.342-13.268A84.975,84.975,0,0,0,453.19,310.13Z" transform="translate(-254.757 -243.381)" fill="#272727"/><path d="M586.762,348.95h-12.95v25.993H547.818V348.95H482.881l14.491-103.881h25.993l-11.321,77.979h35.774V258.111h25.994v64.936h12.95Z" transform="translate(-246.772 -243.257)" fill="#272727"/></g><g transform="translate(660.924 227.263)"><g transform="translate(16.509 4.16)"><path d="M421.484,194.944s-2.272-.61-1.2-4.412S424.415,187,424.415,187s2.614-.536,3.846.91,2.891,6.746-1.5,7.764S421.484,194.944,421.484,194.944Z" transform="translate(-419.996 -186.902)" fill="#295a6e"/></g><g transform="translate(0 18.077)"><path d="M415.967,201.391c-.691-.7-1.576-1.993-2.32-1.349-1.373,1.189-3.758,4.577-6.139,8.877s-3.152,6.417-2.821,9.15c.286,2.356,4.247,4.247,4.247,4.247s3.248-10.815,4.538-14.634C414.218,205.475,417.056,202.495,415.967,201.391Z" transform="translate(-404.615 -199.867)" fill="#4dec8c"/></g><g transform="translate(27.935 17.345)"><path d="M431.679,200.991c.691-.7-.326-2.047.617-1.769,1.5.441,4.341,4,7.391,9.83,1.116,2.132,1.943,3.818,2.556,5.149a6.112,6.112,0,0,1-2.043,7.558l-1.423,1s-5.629-14.436-7.4-17.346C430.159,203.426,430.59,202.1,431.679,200.991Z" transform="translate(-430.641 -199.185)" fill="#4dec8c"/></g><g transform="translate(1.297 38.202)"><path d="M416.395,218.617a69.831,69.831,0,0,0-8.363,13.111c-1.411,3.042-3.377,8.935-1.317,12.527,1.5,2.623,6.88,4.32,6.88,4.32l13.3-7.667,1.644-18.856Z" transform="translate(-405.823 -218.617)" fill="#349e5e"/></g><g transform="translate(9.651 105.283)"><g transform="translate(0 2.989)"><path d="M416.834,290.26c.41-.625.8-4.41-1.02-6.13.225.331.532,1.974.034,2.068-.73.137-1.544-1.5-1.808-2.3a3.32,3.32,0,0,0-.433,1.672C413.715,288,415.874,291.723,416.834,290.26Z" transform="translate(-413.606 -283.898)" fill="#30193b"/></g><g transform="translate(0.428)"><path d="M414.267,282.623c.011.721.017,1.112.012,1.117a1.709,1.709,0,0,0-.267.362c-.093.975.842,3.235,2,3.006.572-.113.822-1.2.106-2.28a13.76,13.76,0,0,0-.876-1.248q.143-.411.319-.9C416.392,280.382,414.239,280.826,414.267,282.623Z" transform="translate(-414.005 -281.113)" fill="#ff97a6"/></g></g><g transform="translate(14.541 39.387)"><path d="M430.306,219.721s6.452,8.43,9.695,14.75c1.532,2.983,1.506,7.685.264,11.831-.868,2.9-6.66,5.622-6.66,5.622l-13.716-10.581-1.726-19.79Z" transform="translate(-418.162 -219.721)" fill="#349e5e"/></g><g transform="translate(24.104 105.321)"><g transform="translate(0 3.12)"><path d="M427.224,290.044c-.334-.669-.27-4.474,1.732-5.967-.262.3-.76,1.9-.276,2.049.707.222,1.709-1.307,2.064-2.072a3.313,3.313,0,0,1,.233,1.712C430.586,288.167,428.006,291.609,427.224,290.044Z" transform="translate(-427.071 -284.055)" fill="#30193b"/></g><g transform="translate(0.896)"><path d="M430.6,282.77c-.1.714-.147,1.1-.143,1.108a1.7,1.7,0,0,1,.222.391c-.021.979-1.215,3.114-2.337,2.751-.555-.179-.676-1.284.163-2.277a13.4,13.4,0,0,1,1.016-1.137q-.093-.425-.211-.926C428.757,280.294,430.844,280.989,430.6,282.77Z" transform="translate(-427.906 -281.148)" fill="#ff97a6"/></g></g><g transform="translate(8.827 16.245)"><path d="M413.044,200.167c2.133-1.57,7.231-2.867,19.034-1.289a3.2,3.2,0,0,1,1.45.493,1.751,1.751,0,0,1,.9,1.372c.262,2.964.237,3.725.237,3.725-1.08,2.166-1.382,7.832-1.834,10.021-.582,2.821-1.176,8.753-1.176,8.753a71.18,71.18,0,0,1-9.122.938c-3.177.033-8.485-.275-8.644-1.861-.317-3.148-.527-7.357-.878-11.906A71.028,71.028,0,0,1,413.044,200.167Z" transform="translate(-412.838 -198.161)" fill="#4dec8c"/></g><g transform="translate(22.174 14.205)"><path d="M425.273,196.26Z" transform="translate(-425.273 -196.26)" fill="#3b2b5b"/></g><g transform="translate(19.531 16.37)"><path d="M423.731,198.277s1.889.052,2.718.1c1.517.1,3.148.254,4.9.488a4.648,4.648,0,0,1,1.2.277,2.56,2.56,0,0,1,1.53,1.819,13.7,13.7,0,0,1,.151,4.869,50.037,50.037,0,0,1-.432,8.453c-.582,2.821-2.253,9.126-2.253,9.126s.244.413-8.729.762a43.2,43.2,0,0,0,1.957-13.247C424.508,203.6,423.731,198.277,423.731,198.277Z" transform="translate(-422.811 -198.277)" fill="#4dec8c"/></g><g transform="translate(19.028 12.384)"><g transform="translate(0 0.026)"><path d="M424.787,194.81s.145,4.311-.216,4.747a1.228,1.228,0,0,1-2.083-.217c-.528-1.138.55-4.753.55-4.753Z" transform="translate(-422.342 -194.588)" fill="#ff97a6"/></g><g transform="translate(0.23)"><path d="M424.779,197.943c-.713.279-1.662-.38-2.222-1.442a2.941,2.941,0,0,1,.213-.962l1.973-.976C424.752,195.183,424.806,197.226,424.779,197.943Z" transform="translate(-422.557 -194.564)" fill="#c95d77"/></g></g><g transform="translate(17.936 7.228)"><path d="M421.386,193.809a8.96,8.96,0,0,1,.229-2.85,1.159,1.159,0,0,1,.509-.786c1.49-.907,4.406-.1,4.925.34.628.54.518,1.531.453,2.269s-.994,4.363-3.366,3.964C421.551,196.312,421.633,195.274,421.386,193.809Z" transform="translate(-421.325 -189.76)" fill="#ff97a6"/></g><g transform="translate(5.33 53.338)"><path d="M416.4,287.018h-2.634s-9.419-41.28,0-52.114c1.9-2.191,7.637-3.937,10.127.963C426.811,241.612,416.4,287.018,416.4,287.018Z" transform="translate(-409.58 -232.719)" fill="#fcc971"/></g><g transform="translate(23.553 53.338)"><path d="M428.808,286.948l2.615.309s14.776-39.853,6.7-51.718c-1.634-2.4-7.121-4.809-10.169-.235C424.377,240.667,428.808,286.948,428.808,286.948Z" transform="translate(-426.558 -232.718)" fill="#fcc971"/></g><g transform="translate(4.01 30.002)"><rect width="34.079" height="22.679" rx="1.156" fill="#cbb3fc"/><g transform="translate(4.076 22.679)"><rect width="5.291" height="0.627" fill="#7f65c1"/></g><g transform="translate(22.464 22.679)"><rect width="5.291" height="0.627" fill="#7f65c1"/></g><g transform="translate(0.234 23.306)"><path d="M441.486,234.053H409.25a.681.681,0,0,1-.681-.682h0a.681.681,0,0,1,.681-.681h32.236a.681.681,0,0,1,.681.681h0A.681.681,0,0,1,441.486,234.053Z" transform="translate(-408.569 -232.691)" fill="#cbb3fc"/></g><g transform="translate(14.904 7.537)"><circle cx="2.564" cy="2.564" r="2.564" fill="#eeeafe"/></g></g><g transform="translate(13.211 16.14)"><path d="M416.923,198.6s1.919,8.5,7.839,8.129,7.6-7.744,7.6-7.744a50.237,50.237,0,0,0-8.674-.912A39.756,39.756,0,0,0,416.923,198.6Z" transform="translate(-416.923 -198.063)" fill="#ff97a6"/></g><g transform="translate(18.277 7.07)"><path d="M421.643,193.653s4.783-1.131,5.033-2.957-3.571-.791-3.571-.791A6.124,6.124,0,0,0,421.643,193.653Z" transform="translate(-421.643 -189.613)" fill="#295a6e"/></g><g transform="translate(24.774 4.241)"><path d="M427.7,186.977" transform="translate(-427.696 -186.977)" fill="none"/></g><g transform="translate(15.82)"><g transform="translate(0 0.538)"><path d="M430.375,191.5H419.354v-2.466a5.511,5.511,0,0,1,5.511-5.511h0a5.511,5.511,0,0,1,5.511,5.511Z" transform="translate(-419.354 -183.527)" fill="#2e2e2e"/></g><g transform="translate(1.976 7.188)"><path d="M422.317,191.162H421.2l.159-1.259a.206.206,0,0,1,.2-.18h.553a.206.206,0,0,1,.206.206Z" transform="translate(-421.195 -189.723)" fill="#2e2e2e"/></g><g transform="translate(7.987 7.076)"><path d="M426.8,191.056h1.121l-.158-1.259a.206.206,0,0,0-.2-.179H427a.2.2,0,0,0-.2.206Z" transform="translate(-426.795 -189.618)" fill="#2e2e2e"/></g><g transform="translate(4.462)"><path d="M425.607,185.881h-2.1v-1.806a1.048,1.048,0,0,1,1.049-1.049h0a1.048,1.048,0,0,1,1.048,1.049Z" transform="translate(-423.511 -183.026)" fill="#4dec8c"/></g><g transform="translate(3.522 0.478)"><path d="M423.7,185.848h-1.064v-1.314a1.064,1.064,0,0,1,1.064-1.064h0Z" transform="translate(-422.635 -183.471)" fill="#4dec8c"/></g><g transform="translate(6.405 0.478)"><path d="M425.321,185.848h1.094v-1.284a1.093,1.093,0,0,0-1.094-1.094h0Z" transform="translate(-425.321 -183.471)" fill="#4dec8c"/></g><g transform="translate(0 8.072)"><path d="M419.364,190.727a31.925,31.925,0,0,0,5.746.249c4.243-.057,5.272-.43,5.272-.43s.127,1.371-.777,1.666c-.838.273-6.964.819-9.324.039a1.42,1.42,0,0,1-.919-1.5Z" transform="translate(-419.354 -190.546)" fill="#2e2e2e"/></g><g transform="translate(4.394 0.538)"><path d="M423.516,183.527c.028.251.042.5.053.754s.014.5.016.752,0,.5-.016.754-.024.5-.053.752c-.028-.251-.041-.5-.052-.752s-.015-.5-.016-.754,0-.5.016-.752S423.488,183.778,423.516,183.527Z" transform="translate(-423.448 -183.527)" fill="#ff9a2e"/></g><g transform="translate(6.412 0.538)"><path d="M425.4,183.527c.028.251.041.5.052.754s.014.5.016.752,0,.5-.015.754-.025.5-.053.752c-.029-.251-.042-.5-.053-.752s-.014-.5-.016-.754,0-.5.016-.752S425.369,183.778,425.4,183.527Z" transform="translate(-425.328 -183.527)" fill="#ff9a2e"/></g><g transform="translate(3.518 0.891)"><path d="M422.678,183.856a5.286,5.286,0,0,1,0,1.378,5.169,5.169,0,0,1,0-1.378Z" transform="translate(-422.632 -183.856)" fill="#ff9a2e"/></g><g transform="translate(7.376 0.891)"><path d="M426.271,183.856a6.294,6.294,0,0,1,0,1.5,6.294,6.294,0,0,1,0-1.5Z" transform="translate(-426.226 -183.856)" fill="#ff9a2e"/></g></g></g><g transform="translate(415.636 205.033)"><g transform="translate(8.716 2.056)"><path d="M212.48,169.126s-1.086-5.78-7.021-4.778c-2.68.452-2.313,2.515-4.6,2.052s-.745.558-2.146,1.932-6.918-1.468-8.367.493-.877,3.176-.633,5.25-4.018-.7-5.065,2.391-1.132,11.353,10.63,14.977c7.96,2.453,18.47-10.758,19.553-14.3C215.7,174.287,217.12,166.366,212.48,169.126Z" transform="translate(-184.211 -164.231)" fill="#444"/></g><g transform="translate(9.153 1.798)"><path d="M212.45,169.143a6.614,6.614,0,0,0-2.671-3.819,5.838,5.838,0,0,0-4.48-.63,3.713,3.713,0,0,0-1.912,1.106,3.988,3.988,0,0,1-1.024.821,2.332,2.332,0,0,1-1.376.172c-.233-.03-.409-.064-.6-.1a2.239,2.239,0,0,0-.5-.026c-.069.006-.094.023-.081.017.008-.02,0,.011-.021.076-.029.147-.047.386-.105.608a2.551,2.551,0,0,1-.69,1.2,2.111,2.111,0,0,1-1.346.532,11.058,11.058,0,0,1-2.492-.253c-.8-.142-1.582-.293-2.357-.355a2.783,2.783,0,0,0-2.05.392c-.055.057-.113.1-.17.165l-.166.236c-.108.157-.205.321-.3.485a3.524,3.524,0,0,0-.391,1.042,7.056,7.056,0,0,0,.076,2.315l.076.605a2.737,2.737,0,0,1,.029.66.756.756,0,0,1-.464.621,1.716,1.716,0,0,1-.67.111,13.837,13.837,0,0,0-2.4-.061,2.131,2.131,0,0,0-1.744,1.413,2.342,2.342,0,0,1,.6-1.052,2.306,2.306,0,0,1,1.1-.56,13.817,13.817,0,0,1,2.428-.115c.393-.023.726-.112.718-.412a2.532,2.532,0,0,0-.055-.543l-.1-.592a7.5,7.5,0,0,1-.178-2.492,4.083,4.083,0,0,1,.4-1.234,5.124,5.124,0,0,1,.322-.553l.179-.262c.072-.089.167-.178.252-.265a2.057,2.057,0,0,1,.605-.392,4.243,4.243,0,0,1,.658-.171,6.07,6.07,0,0,1,1.283-.035c.834.055,1.638.2,2.431.328a10.643,10.643,0,0,0,2.314.211,1.382,1.382,0,0,0,.868-.294,1.8,1.8,0,0,0,.515-.858c.048-.17.059-.334.108-.583a.818.818,0,0,1,.245-.453.806.806,0,0,1,.472-.194,5.393,5.393,0,0,1,1.292.141,1.644,1.644,0,0,0,.989-.1,3.393,3.393,0,0,0,.854-.683,4.1,4.1,0,0,1,2.251-1.205,6.289,6.289,0,0,1,4.811.9A6.553,6.553,0,0,1,212.45,169.143Z" transform="translate(-184.619 -163.991)" fill="#444"/></g><g transform="translate(25.032 111.915)"><path d="M204.875,267.525c-.312-.469-1.669-.764-2.739-.943.333.154.673.391.207.591a3.8,3.8,0,0,1-2.843-.528,3.313,3.313,0,0,0-.045,1.3C199.521,268.415,205.381,268.283,204.875,267.525Z" transform="translate(-199.412 -266.582)" fill="#30193b"/></g><g transform="translate(1.817 117.308)"><path d="M177.8,274.089c-.181-.525,1.77-2.177,2.511-2.483-.223.2-.543.6-.2.763a1.784,1.784,0,0,0,1.839-.656,5.062,5.062,0,0,1,.128,1.357C182.059,273.567,178.222,275.321,177.8,274.089Z" transform="translate(-177.784 -271.606)" fill="#30193b"/></g><g transform="translate(1.366 32.619)"><path d="M204.393,272.119c-.612-.28-2.35-.482-2.4-.581.712-2.889,4.489-31.3,4.427-37.563-.108-10.939-4.17-38.515-5.48-41.015-2.911-.88-9.832.811-14.461.789-.04.219-5.138,4.961-7.732,10.465-4.043,8.577,2,63.144,2.475,72.731a7.186,7.186,0,0,0-.978.532c-.231.188-1.051.94-.714,1.112.492.252,2.1-.5,2.458-1.013a1.266,1.266,0,0,0-.114-.314C181.835,277.184,192.1,215,192.1,215l5.173,19.456s3.842,37.71,3.8,37.771c.391.573,2.052.672,2.786.565C204.367,272.718,204.675,272.354,204.393,272.119Z" transform="translate(-177.364 -192.705)" fill="#ffc897"/></g><g transform="translate(0 28.925)"><path d="M187.142,193.591s-5.012,2.5-9.142,11.3c-1.45,3.091-2.073,21.294-1.873,25.657l4.081-.428.436-15.515,1.349,15.328s17.782.138,25.511-3.766c0,0,1.177-16.2-6.977-36.9Z" transform="translate(-176.091 -189.264)" fill="#3b2b5b"/></g><g transform="translate(17.358 28.925)"><path d="M192.591,229.333l.927-.1c4.672-.528,9.6-1.451,12.8-3.069,0,0,1.177-16.2-6.977-36.9l-5.557,1.8-1.521.239s5.223,7.378,4.357,15.729A188.175,188.175,0,0,1,192.591,229.333Z" transform="translate(-192.263 -189.264)" fill="#30193b"/></g><g transform="translate(9.192 32.271)"><path d="M184.655,192.381" transform="translate(-184.655 -192.381)" fill="#d5eaf5"/></g><g transform="translate(11.051 13.792)"><path d="M198.069,175.2c2.406.341,7.8,3.205,8.353,3.482,2.332,1.158,3.638,1.007,3.375,4.75a17.276,17.276,0,0,1-2.057,6.012,96.242,96.242,0,0,1-6.476,9.966,19.556,19.556,0,0,1-9.113-.925c-5.14-1.959-5.765-3.859-5.765-3.859s.571-5.912,5.316-15.91C192.008,178.072,195.239,174.8,198.069,175.2Z" transform="translate(-186.387 -175.165)" fill="#4dec8c"/></g><g transform="translate(39.937 30.052)"><path d="M213.3,195.169s8.006,7.407,11.636,8.206a8.021,8.021,0,0,0,1.982.188c2.042-.24,4.688-2.511,1.142-5.721a38.58,38.58,0,0,0-12.99-7.527S216.2,192.343,213.3,195.169Z" transform="translate(-213.299 -190.314)" fill="#4dec8c"/></g><g transform="translate(31.398 17.963)"><path d="M207.224,179.442c-2.374-1.963-4.446,3.458,6.659,16.553,1.2,1.415,4.8-.805,3.173-2.946C212.823,187.491,209.714,181.5,207.224,179.442Z" transform="translate(-205.343 -179.051)" fill="#4dec8c"/></g><g transform="translate(49.634 33.473)"><rect width="11.564" height="3.574" transform="matrix(0.814, -0.581, 0.581, 0.814, 0, 6.716)" fill="#474747"/></g><g transform="translate(32.103 37.6)"><g transform="translate(0 0)"><path d="M1.714,0h3.9A1.714,1.714,0,0,1,7.332,1.714V21.24a.778.778,0,0,1-.778.778H.778A.778.778,0,0,1,0,21.24V1.714A1.714,1.714,0,0,1,1.714,0Z" transform="translate(17.925 0) rotate(54.497)" fill="#349e5e"/></g><g transform="translate(2.774)"><path d="M1.714,0h3.9A1.714,1.714,0,0,1,7.332,1.714v16.9a0,0,0,0,1,0,0H0a0,0,0,0,1,0,0V1.714A1.714,1.714,0,0,1,1.714,0Z" transform="translate(15.151 0) rotate(54.497)" fill="#349e5e"/></g></g><g transform="translate(55.993 5.832)"><path d="M264.911,180.536c2.018,8.021-3.576,17.756-12.471,21.7a16.785,16.785,0,0,1-12.595.809,11.667,11.667,0,0,1-7.451-8.2l-.027-.105c-2.018-8.02,3.576-17.754,12.471-21.7,8.958-3.972,17.951-.655,20.046,7.4l.027.105m3.6-1.574-.032-.128C265.923,169,254.939,164.949,244,169.8c-10.895,4.832-17.7,16.7-15.234,26.508.011.043.021.085.033.128,2.56,9.834,13.545,13.886,24.487,9.033,10.894-4.831,17.7-16.7,15.233-26.508Z" transform="translate(-228.257 -167.75)" fill="#3ede7d"/></g><g transform="translate(54.674 4.363)"><path d="M263.682,179.167c2.018,8.021-3.576,17.756-12.471,21.7a16.775,16.775,0,0,1-12.595.809,11.665,11.665,0,0,1-7.451-8.2l-.027-.105c-2.018-8.02,3.576-17.754,12.471-21.7,8.957-3.972,17.95-.655,20.046,7.4l.027.105m3.6-1.572c-.011-.044-.021-.086-.033-.129-2.56-9.834-13.544-13.886-24.487-9.033-10.894,4.832-17.7,16.7-15.233,26.508l.032.128c2.56,9.834,13.545,13.887,24.487,9.033,10.895-4.831,17.7-16.7,15.234-26.507Z" transform="translate(-227.028 -166.381)" fill="#4dec8c"/></g><g transform="translate(50.504)" opacity="0.69"><ellipse cx="19.273" cy="15.284" rx="19.273" ry="15.284" transform="translate(0 25.754) rotate(-41.923)" fill="#d5eaf5"/></g><g transform="translate(53.765 38.077)"><path d="M226.384,201.455c.053,0,.1.029.149.006.406-.2,2.352-1.175,2.241-1.98-.169-1.235-1.577-1.89-1.952-1.637-.337.229.226.876.226.876s.031-.159-.332-.033.079.843.13,1.274C226.9,200.376,225.723,201.437,226.384,201.455Z" transform="translate(-226.181 -197.791)" fill="#ff97a6"/></g><g transform="translate(38.703 46.575)"><g transform="translate(1.028)"><path d="M214.062,206.543s.342-.153.668-.328c.37-.2.719-.424.517-.482a2.083,2.083,0,0,0-.909.076c-.8.2-1.654.647-1,.773A1.454,1.454,0,0,0,214.062,206.543Z" transform="translate(-213.106 -205.708)" fill="#ff97a6"/></g><g transform="translate(0 0.463)"><path d="M212.489,206.5a.445.445,0,0,1,.312-.2,10.1,10.1,0,0,1,1.964-.137,4.359,4.359,0,0,1,2.141,1.321c.048.325-.749.044-.749.044s.881.264.824.674-1.438.078-1.438.078.384.542.084.525a11.918,11.918,0,0,1-1.477-.371,4.758,4.758,0,0,1-.823-.325,8.21,8.21,0,0,1-1.179-.977A3.471,3.471,0,0,1,212.489,206.5Z" transform="translate(-212.149 -206.138)" fill="#ff97a6"/></g></g><g transform="translate(20.721 16.72)"><path d="M195.4,199.23s8.485-10.808,9.235-17.586c.127-1.137-.491-3.2.12-3.679s3.633,1.626,3.966,2.292.786,5.1-2.029,9.68-5.49,9.724-5.49,9.724S195.613,199.611,195.4,199.23Z" transform="translate(-195.396 -177.893)" fill="#4dec8c"/></g><g transform="translate(18.029 15.079)"><path d="M194.361,176.492c-1.15,1.212-2.113,4.972-.937,9.546,1.064,4.137,3.36,12.022,7.663,14.711,3.183,1.988,1.151-5.935,1.151-5.935l-3.866-10.135S195.622,175.162,194.361,176.492Z" transform="translate(-192.888 -176.364)" fill="#4dec8c"/></g><g transform="translate(22.778 31.592)"><path d="M197.338,194.062c-.609,3.7,9.746,16.492,15.1,14.633,1.99-.691,2.127-2.08,2.127-2.08l-13.049-13.978S198.025,189.889,197.338,194.062Z" transform="translate(-197.312 -191.749)" fill="#4dec8c"/></g><g transform="translate(29.587 12.472)"><g transform="translate(0 0.556)"><path d="M206.9,174.454a30.78,30.78,0,0,0-3.216,3.57c-.13.516.112,1.53,1.164.994s3.057-3.76,3.057-3.76Z" transform="translate(-203.656 -174.454)" fill="#ff97a6"/></g><g transform="translate(0.441)"><path d="M207.309,173.936a30.782,30.782,0,0,0-3.216,3.57c-.13.516.219,1.561,1.271,1.025s2.95-3.791,2.95-3.791Z" transform="translate(-204.067 -173.936)" fill="#c95d77"/></g></g><g transform="translate(30.264 9.304)"><path d="M210.731,173.476c-.449-1.839-3.954-2.638-4.682-2.471-.8.184-1.159,1.1-1.442,1.781s-.922,3.806,1.126,5.025C209.589,180.108,210.731,173.476,210.731,173.476Z" transform="translate(-204.287 -170.984)" fill="#ff97a6"/></g><g transform="translate(26.941 7.473)"><path d="M201.194,174.3s5.4,1.661,8.661-2.107c0,0-.4,3.3,2.038,5.006,0,0,2.161-4.057-1.112-7S201.029,172.144,201.194,174.3Z" transform="translate(-201.191 -169.278)" fill="#444"/></g></g><g transform="translate(793.26 190.787)"><g transform="translate(110.91 139.215)"><g transform="translate(0 1.381)"><path d="M636.775,283.87c2.169-.481-.435-2.958-2.211-3.248.484.237,1.073.58.322.756-1.1.258-2.619-.717-3.347-1.347a3.3,3.3,0,0,0-.3,1.583C631.258,282.2,635.159,284.228,636.775,283.87Z" transform="translate(-631.235 -280.031)" fill="#30193b"/></g><g transform="translate(0.304)"><path d="M634.823,281.761c.771-.116.336-.9-.209-1.218-1.855-1.064-1.76-1.785-1.76-1.785l-.927-.014s-.333,1.243-.408,1.381A3.557,3.557,0,0,0,634.823,281.761Z" transform="translate(-631.518 -278.744)" fill="#ff97a6"/></g></g><g transform="translate(85.479 139.71)"><g transform="translate(0 1.559)"><path d="M607.566,283.037c-.311-2.2,2.588-2,4.248-2.38-.448.29-.991.706-.279.9,1.041.281,3.313-.077,3.977-.835a4.789,4.789,0,0,1,.334,1.863C615.847,283.272,607.648,283.618,607.566,283.037Z" transform="translate(-607.542 -280.657)" fill="#30193b"/></g><g transform="translate(3.392)"><path d="M611.3,281.663c-.712-.193-.936-.685.144-.875a8.05,8.05,0,0,0,1.921-.612c.453-.208.612-.937.612-.937l.871-.034s.353,1.461.429,1.623C614.617,281.586,612.344,281.944,611.3,281.663Z" transform="translate(-610.703 -279.205)" fill="#ff97a6"/></g></g><g transform="translate(80.761 53.789)"><path d="M606.114,212.982c1.717-4.591,3.128-7.873,4.167-8.348,5.535-2.388,13.328-5.692,14.364-5.468.992.567,7.245,9.9,8.348,15.9,2.639,14.354,2.669,64.256,2.755,69.324a.463.463,0,0,1-.4.466l-1.477.221a.462.462,0,0,1-.512-.319c-.945-2.991-7.254-23.21-10.726-40.654-2.388-12-3.883-22.213-4.51-22.582-1.656,5.246-1.332,54.146-2.371,63.65-.174,1.585-3.147.347-3.147-.943,0-5.667-7.022-24.35-8.921-42.795C602.379,228.735,603.545,219.849,606.114,212.982Z" transform="translate(-603.146 -199.156)" fill="#30193b"/></g><g transform="translate(80.761 57.224)"><path d="M606.114,212.747c1.717-4.591,3.128-7.873,4.167-8.348,1.462-.631,3.083-1.326,4.694-2,2.149-.9-4.386,13.389-5.1,33.471-.287,8.07,1.6,18.506,2.14,26.213.663,9.414,1.478,14.274,1.836,18.336.158,1.8.723,5.253.624,5.226a2.352,2.352,0,0,1-1.869-1.65c-1.35-5.853-7.022-24.35-8.921-42.795C602.379,228.5,603.545,219.615,606.114,212.747Z" transform="translate(-603.146 -202.356)" fill="#3b2b5b"/></g><g transform="translate(62.009 39.97)"><path d="M587.209,202.957c1.687-1.109,9.275-4.648,9.275-4.648s4.979-7.176,6.439-8.844a20.889,20.889,0,0,1,1.5-1.519c.806-.746,2.7-1.262,5.529-1.664-.869,2.171-6.41,9.4-6.4,9.1a39.693,39.693,0,0,1-3.866,5.383,67.463,67.463,0,0,1-5.434,5.578c-2.632,2.474-8.573.935-8.573.935S585.521,204.067,587.209,202.957Z" transform="translate(-585.676 -186.282)" fill="#4dec8c"/></g><g transform="translate(79.443 37.322)"><path d="M619.627,187.367a106.344,106.344,0,0,0,5.718,13.385s.428,1.345-5.123,4.63a23.584,23.584,0,0,1-11.585,2.815,78.384,78.384,0,0,1-4.952-9.289c-2.464-5.526-1.89-9.356-1.02-10.306.353-.385,6.407-5.2,12.518-4.759A5.153,5.153,0,0,1,619.627,187.367Z" transform="translate(-601.919 -183.815)" fill="#4dec8c"/></g><g transform="translate(54.769 50.117)"><rect width="5.481" height="12.429" transform="matrix(0.628, -0.778, 0.778, 0.628, 0, 4.266)" fill="#349e5e"/></g><g transform="translate(4.081 4.081)"><path d="M562.2,159.491h0a23.787,23.787,0,1,1-18.573,8.853,23.531,23.531,0,0,1,18.573-8.853m0-6.645A30.458,30.458,0,1,0,581.3,159.59a30.43,30.43,0,0,0-19.106-6.744Z" transform="translate(-531.708 -152.846)" fill="#4dec8c"/></g><g transform="translate(62.604 55.656)"><path d="M0,0H11.245V32.255H0Z" transform="translate(32.164 20.254) rotate(128.898)" fill="#4dec8c"/><g transform="translate(1.9 1.533)"><rect width="11.245" height="27.373" transform="translate(28.364 17.188) rotate(128.898)" fill="#3b2b5b"/></g></g><g opacity="0.69"><circle cx="26.323" cy="26.323" r="26.323" transform="translate(0 48.423) rotate(-66.895)" fill="#d5eaf5"/></g><g transform="translate(60.894 58.164)"><path d="M587.532,207.241c-.058.008-.109.044-.164.024-.476-.17-2.758-1.034-2.73-1.943.044-1.4,1.537-2.291,1.985-2.051.4.215-.15,1-.15,1s-.053-.173.366-.075.01.948,0,1.434C586.836,206.1,588.266,207.144,587.532,207.241Z" transform="translate(-584.638 -203.232)" fill="#ff97a6"/></g><g transform="translate(68.689 61.663)"><g transform="translate(2.146)"><path d="M594.935,207.563s-.3-.231-.573-.479c-.313-.281-.6-.585-.39-.592a2.065,2.065,0,0,1,.868.29c.734.389,1.459,1.024.789.991A1.441,1.441,0,0,1,594.935,207.563Z" transform="translate(-593.899 -206.492)" fill="#ff97a6"/></g><g transform="translate(0 0.569)"><path d="M596.687,207.9a.446.446,0,0,0-.257-.274,10.164,10.164,0,0,0-1.882-.6,4.377,4.377,0,0,0-2.4.779c-.125.3.72.221.72.221s-.922.047-.965.46,1.385.42,1.385.42-.5.437-.207.492a11.9,11.9,0,0,0,1.53-.012,4.723,4.723,0,0,0,.88-.12,8.358,8.358,0,0,0,1.381-.672A3.491,3.491,0,0,0,596.687,207.9Z" transform="translate(-591.9 -207.022)" fill="#ff97a6"/></g></g><g transform="translate(79.392 39.807)"><path d="M617.22,206.618a24.865,24.865,0,0,1-8.579,1.409s-2.521-4.2-4.952-9.289c-2.643-5.53-1.858-9.328-1.02-10.306a18.17,18.17,0,0,1,3.382-2.3s-1.135,6.478,1.381,11.4C610.234,203.017,617.751,206.425,617.22,206.618Z" transform="translate(-601.871 -186.13)" fill="#4dec8c"/></g><g transform="translate(72.968 37.518)"><path d="M614.546,184.235c.37-.634,2.565.133,2.994.73a16.558,16.558,0,0,1,2.44,5.082c1.485,4.191,1.309,12.672-1.508,17.141-2.083,3.3-18.168,8.778-21.755,4.1-1.335-1.741-.659-3.028-.659-3.028l18.648-6.115-.961-11.251S613.072,186.761,614.546,184.235Z" transform="translate(-595.887 -183.997)" fill="#4dec8c"/></g><g transform="translate(95.553 43.568)"><path d="M618.436,189.634a14.571,14.571,0,0,1,1.113,4.3,23.673,23.673,0,0,1,.091,4.456,20.93,20.93,0,0,1-.778,4.392,12.244,12.244,0,0,1-1.934,4,18.571,18.571,0,0,0,1.376-4.14,30.608,30.608,0,0,0,.6-4.305,37.027,37.027,0,0,0,.072-4.352A24.56,24.56,0,0,0,618.436,189.634Z" transform="translate(-616.928 -189.634)" fill="#f8f7fd"/></g><g transform="translate(87.49 37.756)"><path d="M609.416,203.538c.7-.3,1.4-.566,2.1-.845s1.413-.53,2.119-.8l-.165.251c-.234-1.869-.438-3.74-.6-5.615s-.316-3.75-.437-5.629l0,.024a13.388,13.388,0,0,1-.093-1.74,15.526,15.526,0,0,1,.1-1.729,7.5,7.5,0,0,1,1.107-3.242,7.82,7.82,0,0,0-.516,1.608,13.634,13.634,0,0,0-.186,1.669,16.038,16.038,0,0,0,.216,3.332v.024c.2,1.872.379,3.745.525,5.621s.275,3.755.361,5.635v.02a.229.229,0,0,1-.166.231c-.727.206-1.447.429-2.179.614S610.152,203.366,609.416,203.538Z" transform="translate(-609.416 -184.219)" fill="#f8f7fd"/></g><g transform="translate(81.922 36.649)"><path d="M605.754,183.188s2.352,2.214,2.287,2.684a1.588,1.588,0,0,1-1.794,1.247c-1.015-.264-2.02-2.906-2.02-2.906Z" transform="translate(-604.228 -183.188)" fill="#ff97a6"/><g transform="translate(0.289 0.513)"><path d="M607.363,184.825a2.48,2.48,0,0,1-2.316,1.069,4.1,4.1,0,0,1-.549-1.041l1.766-1.187C606.591,183.992,607.013,184.424,607.363,184.825Z" transform="translate(-604.497 -183.666)" fill="#c95d77"/></g></g><g transform="translate(77.607 32.68)"><path d="M601.449,185.1a10.54,10.54,0,0,1-1.151-2.684,1.717,1.717,0,0,1,1.126-2.185,11.509,11.509,0,0,1,3.555-.721c.815.19,1.177,1.128,1.464,1.82a5.38,5.38,0,0,1,.344,2.774,3.439,3.439,0,0,1-1.775,1.8C603.082,186.589,602.353,186.3,601.449,185.1Z" transform="translate(-600.209 -179.49)" fill="#ff97a6"/></g><g transform="translate(74.625 33.841)"><path d="M603.878,180.721s-1.974,2.659-4.5,2.443-1.877-1.215-1.877-1.215,5.1-1.918,6.234-1.228" transform="translate(-597.43 -180.571)" fill="#3b2b5b"/></g><g transform="translate(81.073 33.075)"><path d="M603.437,179.858s1.385,4.2,2.961,3.881c.694-.138.694-3.881.694-3.881Z" transform="translate(-603.437 -179.858)" fill="#3b2b5b"/></g><g transform="translate(74.304 28.966)"><g transform="translate(4.299 5.326)"><path d="M601.136,180.992v.515a.258.258,0,1,0,.516,0v-.515Zm.261.619a.1.1,0,1,1,0-.2.1.1,0,0,1,0,.2Z" transform="translate(-601.136 -180.992)" fill="#fd9e38"/></g><g transform="translate(7.537 5.373)"><path d="M604.153,181.035l.629.948a.227.227,0,0,0,.2.1l1.342-.036.08.251a2.145,2.145,0,0,0,.639-.83C607.126,181.09,604.153,181.035,604.153,181.035Z" transform="translate(-604.153 -181.035)" fill="#295a6e"/></g><path d="M597.144,182.379s-.368.548,2.864-.194a3.733,3.733,0,0,0,.664-.219,6.61,6.61,0,0,1,3.194-.635c1.518.224,1.293.653,2.394.693s2.1-.143,2.119-.377c0,0,.01-.082-.275-.1l-.163-1.161-.193-.143s-.347-4.094-3.941-4.207-4.238,1.823-4.6,2.739a11.136,11.136,0,0,0-.5,2.221.894.894,0,0,1-.533.694C597.76,181.867,597.213,182.142,597.144,182.379Z" transform="translate(-597.131 -176.03)" fill="#ffcb48"/><g transform="translate(1.576 4.109)"><path d="M607.749,180.042a5.791,5.791,0,0,1-3.244,0c-2.193-.462-2.668.077-3.714.205s-1.548.23-1.548.23a5.762,5.762,0,0,1-.645.943s.746.4,2.566-.184,2.43-.564,3.2-.339,1.114.642,1.772.657a4.177,4.177,0,0,0,1.861-.29A5.62,5.62,0,0,0,607.749,180.042Z" transform="translate(-598.599 -179.858)" fill="#fd9e38"/></g><g transform="translate(2.519 4.935)"><path d="M599.478,181.494l.046-.69a.147.147,0,0,1,.135-.137l.49-.039a.148.148,0,0,1,.159.14l.034.616A2.3,2.3,0,0,1,599.478,181.494Z" transform="translate(-599.478 -180.628)" fill="#ffcb48"/></g><g transform="translate(3.239 0.128)"><path d="M600.149,177.448a4.433,4.433,0,0,1,1.53-1.018,4.265,4.265,0,0,1,.906-.246,4.671,4.671,0,0,1,.939-.023,6.3,6.3,0,0,1,.922.14,3.549,3.549,0,0,1,.88.334,3.617,3.617,0,0,1,1.314,1.288,4.852,4.852,0,0,0-1.427-1.061,5.088,5.088,0,0,0-1.713-.376,4.69,4.69,0,0,0-.877,0,4.978,4.978,0,0,0-.86.179A6.585,6.585,0,0,0,600.149,177.448Z" transform="translate(-600.149 -176.149)" fill="#fd9e38"/></g></g></g><g transform="translate(587.365 255.788)" opacity="0.1"><path d="M368.916,224.149a.824.824,0,0,0-.556-.7l-1.724-.611a.829.829,0,0,1-.532-.576,13.18,13.18,0,0,0-.608-1.829,13.339,13.339,0,0,0-.875-1.726.794.794,0,0,1-.029-.772l.805-1.593a.794.794,0,0,0-.1-.875,16.057,16.057,0,0,0-2.149-2.115.872.872,0,0,0-.9-.114l-1.666.744a.878.878,0,0,1-.8-.044,14.365,14.365,0,0,0-3.655-1.5.837.837,0,0,1-.585-.526l-.6-1.674a.841.841,0,0,0-.711-.55c-.261-.027-.522-.046-.784-.061l-.135,0c-.218-.01-.436-.018-.655-.019h-.017c-.492,0-.984.013-1.479.053a.845.845,0,0,0-.723.536l-.633,1.664a.841.841,0,0,1-.6.514,14.063,14.063,0,0,0-3.684,1.43.878.878,0,0,1-.8.029l-1.65-.777a.876.876,0,0,0-.907.1,16.208,16.208,0,0,0-2.192,2.074.8.8,0,0,0-.118.873l.771,1.607a.8.8,0,0,1-.045.771A13.318,13.318,0,0,0,339.024,222a.833.833,0,0,1-.544.565l-1.736.576a.825.825,0,0,0-.57.686,15.154,15.154,0,0,0-.033,2.961.823.823,0,0,0,.555.7l1.724.611a.835.835,0,0,1,.533.576,13.061,13.061,0,0,0,.608,1.83,13.259,13.259,0,0,0,.875,1.725.8.8,0,0,1,.029.773l-.805,1.592a.8.8,0,0,0,.1.875,16.069,16.069,0,0,0,2.15,2.115.874.874,0,0,0,.9.115l1.666-.745a.878.878,0,0,1,.8.044,14.335,14.335,0,0,0,3.654,1.5.841.841,0,0,1,.586.526l.6,1.674a.844.844,0,0,0,.712.55,17.008,17.008,0,0,0,1.815.083v0c.09,0,.18,0,.27-.006s.192,0,.288-.008c.232-.009.464-.02.7-.04a.845.845,0,0,0,.725-.536l.633-1.664a.839.839,0,0,1,.6-.514,14.089,14.089,0,0,0,3.685-1.43.879.879,0,0,1,.8-.029l1.651.777a.876.876,0,0,0,.907-.1,16.134,16.134,0,0,0,2.191-2.074.8.8,0,0,0,.119-.873l-.772-1.607a.8.8,0,0,1,.045-.771,13.318,13.318,0,0,0,1.557-3.526.833.833,0,0,1,.545-.565l1.736-.576a.825.825,0,0,0,.57-.686A15.238,15.238,0,0,0,368.916,224.149Zm-16.275,9.191a7.645,7.645,0,1,1,7.918-7.64A7.783,7.783,0,0,1,352.641,233.34Z" transform="translate(-336.084 -209.602)" fill="#349e5e"/></g><g transform="translate(556.305 235.692)" opacity="0.1"><path d="M341.1,207.044c-.016-.54-.061-1.072-.129-1.6a.655.655,0,0,0-.023-.113.767.767,0,0,0-.336-.436.788.788,0,0,0-.209-.089l-1.954-.51a.778.778,0,0,1-.474-.364.835.835,0,0,1-.079-.191q-.143-.517-.324-1.016c-.12-.333-.253-.66-.4-.981a.739.739,0,0,1-.059-.194.76.76,0,0,1,.131-.573l1.188-1.648a.765.765,0,0,0,.032-.855,17.111,17.111,0,0,0-1.962-2.525.765.765,0,0,0-.836-.181l-1.888.738a.748.748,0,0,1-.2.047.621.621,0,0,1-.1,0,.746.746,0,0,1-.222-.042.784.784,0,0,1-.243-.131q-.417-.33-.858-.63t-.9-.566a.792.792,0,0,1-.331-.369.737.737,0,0,1-.061-.3l-.008-2.034a.763.763,0,0,0-.476-.71,16.82,16.82,0,0,0-3.07-.892.766.766,0,0,0-.784.345l-1.094,1.708a.773.773,0,0,1-.69.351c-.351-.015-.706-.017-1.064-.006s-.713.036-1.063.073a.771.771,0,0,1-.709-.308l-1.2-1.637a.767.767,0,0,0-.8-.3,16.9,16.9,0,0,0-3.01,1.081.764.764,0,0,0-.43.738l.119,2.031a.772.772,0,0,1-.35.687,14.38,14.38,0,0,0-1.684,1.3.769.769,0,0,1-.751.167l-1.931-.619a.763.763,0,0,0-.822.233,16.971,16.971,0,0,0-1.8,2.642.766.766,0,0,0,.085.852l1.288,1.57a.767.767,0,0,1,.12.762,14.126,14.126,0,0,0-.595,2.038.784.784,0,0,1-.518.587l-1.918.63a.766.766,0,0,0-.528.672c-.034.528-.046,1.063-.029,1.6s.061,1.072.129,1.6a.764.764,0,0,0,.569.638l1.953.511a.781.781,0,0,1,.553.554,14.086,14.086,0,0,0,.721,2,.771.771,0,0,1-.073.769l-1.188,1.647a.765.765,0,0,0-.031.857,16.961,16.961,0,0,0,1.962,2.523.765.765,0,0,0,.835.182l1.888-.74a.772.772,0,0,1,.761.121,14.48,14.48,0,0,0,1.761,1.2.767.767,0,0,1,.392.663l.008,2.034a.765.765,0,0,0,.475.711,16.83,16.83,0,0,0,3.071.891.766.766,0,0,0,.783-.343l1.095-1.709a.774.774,0,0,1,.689-.351c.352.015.706.018,1.065.006s.712-.035,1.062-.073a.8.8,0,0,1,.4.06.764.764,0,0,1,.313.248l1.2,1.637a.752.752,0,0,0,.075.088.77.77,0,0,0,.282.182.753.753,0,0,0,.447.025q.784-.2,1.538-.471t1.47-.61a.764.764,0,0,0,.432-.738l-.12-2.03a.772.772,0,0,1,.35-.687,14.188,14.188,0,0,0,1.684-1.3.812.812,0,0,1,.259-.157.758.758,0,0,1,.294-.046.716.716,0,0,1,.2.035l1.93.62a.789.789,0,0,0,.338.031.756.756,0,0,0,.485-.265,17.078,17.078,0,0,0,1.8-2.64.761.761,0,0,0,.078-.215.776.776,0,0,0-.163-.638l-1.288-1.57a.766.766,0,0,1-.167-.564.8.8,0,0,1,.047-.2,14.215,14.215,0,0,0,.6-2.038.81.81,0,0,1,.068-.2.77.77,0,0,1,.45-.392l1.918-.631a.765.765,0,0,0,.528-.672C341.105,208.117,341.117,207.584,341.1,207.044Zm-7.6,6.429q-.285.451-.611.872a11.137,11.137,0,0,1-2.725,2.512q-.224.147-.455.281-.462.27-.953.5a11.072,11.072,0,1,1-4.967-21.128c.115,0,.23,0,.343,0a11.1,11.1,0,0,1,1.645.121h0c.178.027.355.057.531.092h0c.175.034.348.073.519.117h.006c.171.043.339.09.506.141l.013,0q.246.076.489.162l.019.006c.159.057.317.118.472.181l.025.011q.23.095.454.2l.033.016c.147.069.292.142.435.217l.041.021q.209.111.414.232l.048.029c.133.079.264.161.394.246l.056.038c.126.083.25.167.371.255l.065.048c.118.087.234.175.348.266l.073.059c.111.089.219.179.326.273l.079.072c.1.091.2.184.3.279l.087.086c.094.092.188.187.279.283.031.032.061.065.091.1.088.094.174.189.258.287.033.038.064.076.1.115.079.094.159.19.235.288l.1.13c.073.1.145.191.214.289.034.048.068.1.1.147.065.1.131.19.193.287.034.055.068.109.1.164.058.094.117.189.173.285.034.06.067.12.1.181.052.093.1.187.152.282.034.065.065.132.1.2.045.092.091.185.134.278.032.072.061.144.092.216.04.092.079.182.116.276.031.076.058.155.087.232s.068.179.1.27.053.169.079.252.057.174.083.263.047.179.071.269.046.17.067.257.041.193.061.29c.017.082.035.163.05.247.019.105.034.211.05.318.012.076.026.151.036.228.015.12.027.242.039.363.006.064.015.129.02.193q.023.28.032.564t0,.57c-.008.378-.034.751-.078,1.12q-.034.275-.08.547a11.008,11.008,0,0,1-1.269,3.551C333.682,213.169,333.589,213.323,333.495,213.473Z" transform="translate(-307.146 -190.879)" fill="#349e5e"/></g><g transform="translate(290 162.598)"><g clip-path="url(#a)"><g transform="translate(-278.428 117.84)"><g transform="translate(865.562 23.491)"><g transform="translate(157.509)"><path d="M896.832,399.179c-28.25,0-55.268-18.48-75.5-52.171-21.594-35.966-67.527-33.5-67.988-33.467l-.556-8.807c2.1-.127,51.78-2.792,76.11,37.732,20.964,34.921,49.334,52.063,77.864,47.01,24.655-4.361,45.311-25.233,50.233-50.756,5.474-28.388,21.484-50.98,46.3-65.335,26.014-15.047,60.951-21.171,103.829-18.2l-.608,8.8c-80.27-5.547-130.286,21.583-140.857,76.408-5.6,29.032-29.185,52.789-57.36,57.775A65.808,65.808,0,0,1,896.832,399.179Z" transform="translate(-752.792 -254.453)" fill="#e4defc"/></g><g transform="translate(0 12.159)"><g transform="translate(102.852 18.302)"><path d="M18.417,0H44.446a0,0,0,0,1,0,0V48.278a0,0,0,0,1,0,0H18.417A18.417,18.417,0,0,1,0,29.861V18.417A18.417,18.417,0,0,1,18.417,0Z" transform="translate(44.445 48.57) rotate(-179.622)" fill="#eeeafe"/></g><g transform="translate(140.662 30.344)"><path d="M737.1,315.124l16.1-1.74L753.315,296l-16.08-1.952Z" transform="translate(-737.096 -294.051)" fill="#eeeafe"/></g><g transform="translate(152.986 35.922)"><rect width="17.242" height="10.836" transform="translate(17.242 10.95) rotate(-179.622)" fill="#eeeafe"/></g><g transform="translate(167.278 31.562)"><rect width="2.52" height="7.751" transform="translate(2.52 7.767) rotate(-179.622)" fill="#eeeafe"/></g><g transform="translate(162.695 31.532)"><rect width="2.52" height="7.751" transform="translate(2.52 7.767) rotate(-179.622)" fill="#eeeafe"/></g><g transform="translate(158.112 31.501)"><rect width="2.521" height="7.751" transform="translate(2.521 7.767) rotate(-179.622)" fill="#eeeafe"/></g><g transform="translate(167.205 42.586)"><rect width="2.521" height="7.751" transform="translate(2.521 7.767) rotate(-179.622)" fill="#eeeafe"/></g><g transform="translate(162.622 42.555)"><rect width="2.521" height="7.751" transform="translate(2.52 7.767) rotate(-179.622)" fill="#eeeafe"/></g><g transform="translate(158.04 42.525)"><rect width="2.521" height="7.751" transform="translate(2.521 7.767) rotate(-179.622)" fill="#eeeafe"/></g><g transform="translate(55.801 4.927)"><path d="M659.9,270.371l33.1.218a2.734,2.734,0,0,1,2.487,1.584c1.3,2.9,5.679,9.1,19.883,12.214,11.936,2.615,12.417,43.855.647,47.133-13.407,3.735-17.816,12.271-19.14,16.037a2.741,2.741,0,0,1-2.61,1.829l-36.224-.239Z" transform="translate(-658.035 -270.371)" fill="#f4f4f4"/></g><g transform="translate(0.258 17.868)"><path d="M657.975,294.2l-45.989-.3a5.735,5.735,0,0,1-5.7-5.774h0a5.736,5.736,0,0,1,5.774-5.7l45.989.3Z" transform="translate(-606.288 -282.428)" fill="#349e5e"/></g><g transform="translate(0 56.913)"><path d="M657.735,330.579l-45.989-.3a5.735,5.735,0,0,1-5.7-5.774h0a5.735,5.735,0,0,1,5.774-5.7l45.989.3Z" transform="translate(-606.048 -318.804)" fill="#349e5e"/></g><g transform="translate(32.272)"><path d="M636.117,309.934c.152-23.186,6.08-42.146,14.641-43.98l.917-.173,19.47.129a3.164,3.164,0,0,1,1.269.3,4.274,4.274,0,0,1,2.374,4.39c-.627,5.784-4.97,22.065-5.071,37.377-.106,16.132,3.978,35.685,4.444,41.894a4.32,4.32,0,0,1-1.963,4,3.134,3.134,0,0,1-1.637.544l-19.47-.129-.88-.005C641.675,352.335,635.964,333.12,636.117,309.934Z" transform="translate(-636.114 -265.781)" fill="#eeeafe"/></g><g transform="translate(32.281 38.388)" opacity="0.36"><path d="M660.265,310.9l-23.9-.158s-.253-3.3-.243-4.408c.011-1.2.351-4.787.351-4.787l23.851.158a4.6,4.6,0,0,1,4.567,4.628h0A4.6,4.6,0,0,1,660.265,310.9Z" transform="translate(-636.123 -301.545)" fill="#349e5e"/></g></g></g><g transform="translate(0)"><path d="M-72.755,403.26a65.8,65.8,0,0,1-23.8-9.627c-13.815-9.082-36.4-32-32.409-83.466,4.484-57.865-70.627-68.754-71.394-68.856l1.189-8.745a132.356,132.356,0,0,1,40.935,13.773c27.035,14.706,40.2,37.013,38.069,64.508-3.457,44.6,13.566,65.624,28.457,75.41,17.293,11.367,37.531,11.414,48.582,5.588,16.258-8.573,22.81-26.64,26.725-37.433.741-2.046,1.381-3.811,2-5.292,17.821-42.439,43.07-32.813,69.8-22.626,21.368,8.144,45.589,17.374,74.281,6.9l3.027,8.287c-31.784,11.612-58.77,1.328-80.452-6.937-27.443-10.46-44.007-16.772-58.524,17.8C-6.8,353.817-7.4,355.486-8.1,357.42c-4.065,11.207-11.63,32.068-30.905,42.231C-47.293,404.021-59.708,405.75-72.755,403.26Z" transform="translate(200.356 -232.567)" fill="#e4defc"/><g transform="translate(315.216 38.231)"><g transform="translate(0)"><g transform="translate(47.133 12.635)"><path d="M183.747,279.957l-21.306,5.54a6.224,6.224,0,0,0-4.278,4.047c-1.185,3.421-4.841,9.183-16.023,14.629-10.961,5.338-1.834,43.439,10.336,43.569,11.934.127,18.233,5.166,21.133,8.572a6.192,6.192,0,0,0,6.277,1.977l23.99-6.236Z" transform="translate(-137.228 -279.957)" fill="#f4f4f4"/></g><g transform="translate(23.559 33.815)"><path d="M164.794,344.074l-20.824,5.414a22.93,22.93,0,0,1-27.961-16.424h0A22.928,22.928,0,0,1,132.431,305.1l20.824-5.414Z" transform="translate(-115.265 -299.689)" fill="#e4defc"/></g><g transform="translate(12.738 54.145)"><path d="M125.354,338l-16.016,2.352-4.154-15.98,15.134-5.746Z" transform="translate(-105.184 -318.63)" fill="#e4defc"/></g><g transform="translate(0.601 62.292)"><rect width="17.242" height="10.293" transform="translate(0 4.338) rotate(-14.573)" fill="#e4defc"/></g><g transform="translate(0 61.78)"><rect width="2.52" height="7.363" transform="matrix(0.968, -0.252, 0.252, 0.968, 0, 0.634)" fill="#e4defc"/></g><g transform="translate(4.435 60.627)"><rect width="2.521" height="7.363" transform="translate(0 0.634) rotate(-14.574)" fill="#e4defc"/></g><g transform="translate(8.871 59.474)"><rect width="2.521" height="7.363" transform="translate(0 0.634) rotate(-14.574)" fill="#e4defc"/></g><g transform="translate(2.635 71.915)"><rect width="2.521" height="7.363" transform="matrix(0.968, -0.252, 0.252, 0.968, 0, 0.634)" fill="#e4defc"/></g><g transform="translate(7.07 70.762)"><rect width="2.521" height="7.363" transform="translate(0 0.634) rotate(-14.574)" fill="#e4defc"/></g><g transform="translate(11.506 69.609)"><rect width="2.521" height="7.363" transform="matrix(0.968, -0.252, 0.252, 0.968, 0, 0.634)" fill="#e4defc"/></g><g transform="translate(86.329 0.208)"><path d="M204.482,358.94c-8.909,2.316-21.116-14.982-27.266-38.637s-3.912-44.709,5-47.025l18.844-4.9,22.269,85.662-19.152,4.979" transform="translate(-173.745 -268.379)" fill="#eeeafe"/></g><g transform="translate(105.173)"><path d="M227.034,307.031c6.149,23.655,3.912,44.708-5,47.024s-21.116-14.982-27.266-38.638-3.912-44.708,5-47.024S220.885,283.375,227.034,307.031Z" transform="translate(-191.301 -268.185)" fill="#e4defc"/></g><g transform="translate(113.463 36.31)"><path d="M206.809,309.1c1.144,4.4.454,8.394-1.543,8.913s-4.544-2.63-5.688-7.033-.454-8.394,1.542-8.913S205.664,304.7,206.809,309.1Z" transform="translate(-199.025 -302.014)" fill="#349e5e"/></g><g transform="translate(128.319 33.005)"><path d="M220.649,306.024c1.144,4.4.453,8.394-1.543,8.913s-4.544-2.63-5.688-7.034-.454-8.394,1.542-8.912S219.5,301.621,220.649,306.024Z" transform="translate(-212.865 -298.935)" fill="#349e5e"/></g></g></g></g></g></g></g><g transform="translate(567.794 455.474)"><path d="M317.85,395.951h5.726c3.516,0,5.9,2.208,5.9,5.6a5.572,5.572,0,0,1-5.88,5.675H321.47v6.7h-3.62Zm5.239,8.137a2.475,2.475,0,0,0,2.669-2.542,2.429,2.429,0,0,0-2.618-2.464h-1.67v5.006Z" transform="translate(-317.85 -395.617)" fill="#272727"/><path d="M333.423,409.3l-1.566,4.622h-3.645l6.367-17.971h3.8l6.367,17.971H341.1l-1.566-4.622Zm3.055-9.473L334.4,406.3h4.184Z" transform="translate(-317.09 -395.617)" fill="#272727"/><path d="M360.455,398.617l-2.284,2.362A6.26,6.26,0,0,0,353.524,399c-3.518,0-5.7,2.619-5.7,5.957a5.534,5.534,0,0,0,5.7,5.929,6.25,6.25,0,0,0,4.314-1.411v-2.209h-3.415v-3.054h6.8v7.112a11.033,11.033,0,0,1-7.856,2.952,9.319,9.319,0,1,1,0-18.639A9.283,9.283,0,0,1,360.455,398.617Z" transform="translate(-315.928 -395.64)" fill="#272727"/><path d="M362.807,395.951h9.243v3.26h-5.622v4.006h4.827v3.208h-4.827v4.263h5.854v3.234h-9.475Z" transform="translate(-314.552 -395.617)" fill="#272727"/><path d="M383.794,401.7v12.22h-3.57V395.951H383.9l7.676,12.324V395.951h3.569v17.971h-3.594Z" transform="translate(-313.274 -395.617)" fill="#272727"/><path d="M396.422,404.96a9.346,9.346,0,1,1,9.345,9.319A9.058,9.058,0,0,1,396.422,404.96Zm3.774,0c0,3.439,2.337,5.929,5.571,5.929s5.573-2.49,5.573-5.929a5.583,5.583,0,1,0-11.144,0Z" transform="translate(-312.086 -395.64)" fill="#272727"/><path d="M418.553,399.211h-4.21v-3.26h12.014v3.26h-4.184v14.711h-3.62Z" transform="translate(-310.771 -395.617)" fill="#272727"/><path d="M433.6,395.951h9.191v3.26h-5.571v4.237H442.1v3.234h-4.878v7.241H433.6Z" transform="translate(-309.358 -395.617)" fill="#272727"/><path d="M443.482,404.96a9.346,9.346,0,1,1,9.347,9.319A9.059,9.059,0,0,1,443.482,404.96Zm3.776,0c0,3.439,2.336,5.929,5.571,5.929s5.571-2.49,5.571-5.929a5.582,5.582,0,1,0-11.141,0Z" transform="translate(-308.634 -395.64)" fill="#272727"/><path d="M463.15,407.17V395.951h3.62V407.17a3.621,3.621,0,1,0,7.239,0V395.951h3.62V407.17c0,4.237-2.593,7.086-7.241,7.086S463.15,411.406,463.15,407.17Z" transform="translate(-307.191 -395.617)" fill="#272727"/><path d="M483.323,401.7v12.22h-3.57V395.951h3.672l7.677,12.324V395.951h3.568v17.971h-3.594Z" transform="translate(-305.973 -395.617)" fill="#272727"/><path d="M496.837,395.951h4.775c5.878,0,9.525,3.363,9.525,8.986,0,5.751-3.672,8.985-9.525,8.985h-4.775Zm4.9,14.838c3.415,0,5.624-1.977,5.624-5.852,0-3.774-2.209-5.828-5.624-5.828h-1.282v11.68Z" transform="translate(-304.719 -395.617)" fill="#272727"/></g></g></svg>