<svg xmlns="http://www.w3.org/2000/svg" width="22.678" height="22.673" viewBox="0 0 22.678 22.673"><g transform="translate(0)"><path d="M20.956,7.507a6.031,6.031,0,0,0,.107-1.123A6.409,6.409,0,0,0,14.575.056,6.474,6.474,0,0,0,8.491,4.232,3.265,3.265,0,0,0,4.283,6a3.114,3.114,0,0,0-.14.432,4.769,4.769,0,0,0-4.088,5.4,4.827,4.827,0,0,0,4.809,4.049h4.05a.792.792,0,1,0,0-1.584H4.863a3.169,3.169,0,1,1,0-6.336.8.8,0,0,0,.81-.792A1.6,1.6,0,0,1,7.3,5.594a1.639,1.639,0,0,1,1.131.453.823.823,0,0,0,1.145-.008A.786.786,0,0,0,9.8,5.61a4.844,4.844,0,0,1,5.585-3.9,4.76,4.76,0,0,1,3.993,5.461,4.653,4.653,0,0,1-.1.458.783.783,0,0,0,.335.871,3.125,3.125,0,0,1,.908,4.391A3.26,3.26,0,0,1,17.823,14.3h-2.43a.792.792,0,1,0,0,1.584h2.43a4.806,4.806,0,0,0,4.855-4.756A4.709,4.709,0,0,0,20.956,7.507Z" transform="translate(-0.001 -0.056)" fill="#4e4e4e"/></g><g transform="translate(6.999 6.426)"><path d="M163.845,164a.855.855,0,0,0-1.188,0l-2.817,2.816V154.346a.855.855,0,1,0-1.71,0v12.472L155.314,164a.855.855,0,0,0-1.209,1.209l4.275,4.275a.855.855,0,0,0,1.209,0l0,0,4.275-4.275A.855.855,0,0,0,163.845,164Z" transform="translate(-153.865 -153.491)" fill="#4e4e4e"/></g></svg>