<svg xmlns="http://www.w3.org/2000/svg" width="16.914" height="16.914" viewBox="0 0 16.914 16.914"><path d="M3.964,105.361a4.465,4.465,0,0,1,.632-2.3v-2.851H1.745a8.461,8.461,0,0,0,0,10.293H4.6v-2.851A4.465,4.465,0,0,1,3.964,105.361Z" transform="translate(0 -96.904)" fill="#fff"/><path d="M197.982,373.59,196,375.572l1.982,1.982a8.393,8.393,0,0,0,5.146-1.745v-2.848H200.28A4.492,4.492,0,0,1,197.982,373.59Z" transform="translate(-189.525 -360.64)" fill="#fff"/><path d="M55.674,325.477l-2.851,2.851a8.6,8.6,0,0,0,.732.834,8.4,8.4,0,0,0,5.98,2.477v-3.964A4.5,4.5,0,0,1,55.674,325.477Z" transform="translate(-51.078 -314.725)" fill="#fff"/><path d="M264.457,199.262a8.53,8.53,0,0,0-.138-1.532l-.074-.406H256v3.964h4.012a4.472,4.472,0,0,1-1.714,1.838l2.848,2.848a8.592,8.592,0,0,0,.834-.732A8.4,8.4,0,0,0,264.457,199.262Z" transform="translate(-247.543 -190.805)" fill="#fff"/><path d="M201.159,5.28l.35.35,2.8-2.8-.35-.35A8.4,8.4,0,0,0,197.982,0L196,1.982l1.982,1.982A4.464,4.464,0,0,1,201.159,5.28Z" transform="translate(-189.525 0)" fill="#fff"/><path d="M59.534,3.964V0a8.4,8.4,0,0,0-5.98,2.477,8.585,8.585,0,0,0-.732.834l2.851,2.851A4.5,4.5,0,0,1,59.534,3.964Z" transform="translate(-51.077 0)" fill="#fff"/></svg>