<svg xmlns="http://www.w3.org/2000/svg" xmlns:xlink="http://www.w3.org/1999/xlink" width="210" height="48.938" viewBox="0 0 210 48.938"><defs><linearGradient id="a" x1="-8.113" y1="-17.703" x2="-13.635" y2="-21.215" gradientUnits="objectBoundingBox"><stop offset="0" stop-color="#fff"/><stop offset="1"/></linearGradient></defs><g transform="translate(-89 -20)"><g transform="translate(-176.721 -265.17)"><path d="M368.681,1308.29v21.08l-.009-.006c-.026-.02-.049-.04-.078-.061-.058-.043-.121-.081-.182-.124l-.037-.029c-.017-.014-.038-.023-.055-.037a19.21,19.21,0,0,0-3.929-2.137,15.429,15.429,0,0,0-2.1-.684.583.583,0,0,0-.075-.017v-9.706Z" transform="translate(-68.664 -1007.128)" fill="#4dec8c"/><path d="M306.324,1361.807l-.185.172c.032.043.068.09.11.142l.049.058c.045.054.1.112.154.173l.064.07c.082.085.172.176.276.274.235.225.529.48.883.762v-3.114A14.1,14.1,0,0,1,306.324,1361.807Z" transform="translate(-28.759 -1044.168)" fill="#4dec8c"/><path d="M362.223,1252.85v26.211l6.459-6.5V1252.85Z" transform="translate(-68.666 -967.68)" fill="#4dec8c"/><path d="M289.073,1301.076a15.244,15.244,0,0,1,1.982,1.053,19.537,19.537,0,0,1,3.283,2.6c.1.1.188.192.281.288l.912,1.258v-13.114h-6.459Z" transform="translate(-16.616 -996.36)" fill="#4dec8c"/><path d="M324.9,1318.464v13.619c.219.135.444.272.678.411l1.261.757.17.089.095.046c.2.1.381.185.552.26l.065.029c.175.077.34.146.488.2.084.033.163.06.238.086l.094.031.119.038.089.026c.033.009.066.019.1.026l.081.021.073.016.03.006c0-.011.008-.025.013-.037l.066-.2,0-.01c.051-.155.107-.3.161-.447.032-.088.063-.182.1-.268.085-.218.174-.426.263-.623l.012-.029c.186-.412.373-.778.541-1.084.062-.114.12-.215.176-.312l.034-.059c.051-.088.1-.168.143-.239l.029-.048c.037-.06.071-.116.1-.163l.017-.027.078-.12.009-.013,0-.006.037-.055h0c.008-.011.016-.023.024-.035.022-.032.043-.064.066-.095.007-.009.013-.018.02-.028.027-.035.057-.067.085-.1v0c.022-.027.044-.054.067-.08l.015-.017c.037-.039.076-.076.115-.112.02-.019.038-.04.059-.058l.007-.007c.029-.026.058-.047.086-.071v-9.059l-.05-8.2Z" transform="translate(-42.11 -1010.14)" fill="#4dec8c"/><path d="M324.9,1293.309l6.434-4.207.025-15.353H324.9Z" transform="translate(-42.11 -982.551)" fill="#4dec8c"/><path d="M300.528,1345.118c-2.4-3.193-9.2-5.7-10.051-4.239a12.832,12.832,0,0,0-1.431,2.945c-.463,1.421-.921,3.21-6.72-.162l.035-.052c-9.264-5.565-7.537-6.95-6.264-8.136a12.811,12.811,0,0,0,2.07-2.538c.965-1.387-4.171-6.5-8.075-7.333s-4.371,8.377-4.371,8.377c.125,6.591,6.64,11.63,10.339,13.964,2.483,1.823,11.507,7.84,18.708,4.665C294.769,1352.61,302.922,1348.313,300.528,1345.118Z" transform="translate(0 -1019.411)" fill="#4dec8c"/><path d="M316.425,1369.633c-2.992-2.149-7.311-3.447-7.978-2.3a12.829,12.829,0,0,0-1.431,2.946c-.463,1.421-.921,3.21-6.72-.163l.035-.052c-7.342-4.41-7.781-6.195-7.012-7.336-1.081.952-4.895,4.837.391,8.378C299.579,1375.032,310.409,1382.47,316.425,1369.633Z" transform="translate(-17.97 -1045.862)" fill="url(#a)" style="mix-blend-mode:multiply;isolation:isolate"/><path d="M269.666,1341.324s.5-4.378,1.148-4.378S270.814,1338.525,269.666,1341.324Z" transform="translate(-2.807 -1027.519)" fill="#fefefe"/><path d="M275.5,1330.658a.431.431,0,1,1-.43-.43A.43.43,0,0,1,275.5,1330.658Z" transform="translate(-6.348 -1022.738)" fill="#fefefe"/><path d="M384.62,1302.426V1280.36" transform="translate(-84.603 -987.255)" fill="none"/></g><text transform="translate(132 53)" fill="#4dec8c" font-size="25" font-family="Poppins-SemiBold, Poppins" font-weight="600"><tspan x="0" y="0">Earnings Call</tspan></text></g></svg>