<svg xmlns="http://www.w3.org/2000/svg" width="268.971" height="379.339" viewBox="0 0 268.971 379.339"><g transform="translate(-840.029 -1036.661)"><g transform="translate(840.029 1068.436)"><path d="M138.049,95.2a.792.792,0,0,0-1.514,0,13.939,13.939,0,0,0-.218,4.127q.009,2.286.04,4.571a.935.935,0,0,0,1.868,0c.023-1.524.033-3.047.039-4.571A13.9,13.9,0,0,0,138.049,95.2Z" transform="translate(-132.212 -94.642)" fill="#fff"/><path d="M142.663,99.629a.792.792,0,0,0,0-1.514,13.982,13.982,0,0,0-4.127-.218c-1.524.008-3.048.018-4.572.04a.935.935,0,0,0,0,1.868c1.524.023,3.048.033,4.572.04A13.9,13.9,0,0,0,142.663,99.629Z" transform="translate(-133.062 -93.792)" fill="#fff"/></g><g transform="translate(959.82 1193.67)"><path d="M248.572,213.98a.793.793,0,0,0-1.515,0,13.986,13.986,0,0,0-.216,4.127c.006,1.524.016,3.048.039,4.572a.935.935,0,0,0,1.869,0c.023-1.524.033-3.048.039-4.572A13.9,13.9,0,0,0,248.572,213.98Z" transform="translate(-242.734 -213.421)" fill="#fff"/><path d="M253.186,218.408a.792.792,0,0,0,0-1.514,13.943,13.943,0,0,0-4.127-.218q-2.286.009-4.572.04a.935.935,0,0,0,0,1.868c1.524.023,3.048.033,4.572.039A13.9,13.9,0,0,0,253.186,218.408Z" transform="translate(-243.585 -212.571)" fill="#fff"/></g><ellipse cx="117.5" cy="6" rx="117.5" ry="6" transform="translate(874 1404)" fill="#f5f5f5"/><g transform="translate(902.88 1036.661)"><g transform="translate(0 47.324)"><rect width="23.545" height="74.734" rx="11.772" transform="translate(2.995 67.658) rotate(-97.308)" fill="#4dec8c"/><g transform="translate(52.919 22.956)"><path d="M1236.014,605.654h30.3l26.825,15.685L1291.3,738.362l-80.086.011L1207.532,623.1Z" transform="translate(-1207.532 -605.654)" fill="#fff"/></g><path d="M1336.792,612.153l2.431,7.565-8.518,7.666-5.218-8.328,6.146-7.7Z" transform="translate(-1243.177 -586.978)" fill="#292929"/><g transform="translate(81.401 0)"><path d="M1321.84,536.48s3.979,3.548,15.151,3.548,15.151-3.548,15.151-3.548V513.524h-30.3Z" transform="translate(-1321.84 -513.524)" fill="#ff8f6e"/><path d="M13.875,0h6.308a0,0,0,0,1,0,0V13.875a0,0,0,0,1,0,0H0a0,0,0,0,1,0,0v0A13.875,13.875,0,0,1,13.875,0Z" transform="translate(20.182 20.114) rotate(180)" fill="#3b2631"/></g><path d="M1205.638,1135.064l-5.369,80.1a24.6,24.6,0,0,0,9.014,20.6l53.89,49.678,10.027-11.088-40.333-61.176,11.806-62.725-1.755-16.464Z" transform="translate(-1149.123 -979.389)" fill="#292929"/><g transform="translate(106.657 294.964)"><path d="M1428.633,1722.859c-3.084-4.332,2.4-11.706,3.924-13.327l11.447-12.2,9.672,9.075-20.23,21.566A34.629,34.629,0,0,1,1428.633,1722.859Z" transform="translate(-1426.585 -1697.329)" fill="#3b2631"/><path d="M5.784,0h.877a5.784,5.784,0,0,1,5.784,5.784v0a0,0,0,0,1,0,0H0a0,0,0,0,1,0,0v0A5.784,5.784,0,0,1,5.784,0Z" transform="translate(0 11.497) rotate(-46.831)" fill="#3b2631"/></g><g transform="translate(55.812 155.674)"><path d="M1233.879,1138.321v1.521a8.808,8.808,0,0,1-8.923,8.683h-5.817l.789-10.18v-.025Z" transform="translate(-1219.139 -1138.316)" fill="#525f8a"/><path d="M1222.3,1138.3v.027l0-.027Z" transform="translate(-1221.511 -1138.303)" fill="#485278"/></g><g transform="translate(87.715 155.663)"><path d="M1350.3,1138.266l-3.124,158.147,14.554.237,31.633-138.958,2.785-19.429Z" transform="translate(-1347.179 -1138.262)" fill="#292929"/></g><g transform="translate(79.219 306.888)"><path d="M5.838,0h0a5.838,5.838,0,0,1,5.838,5.838v6.457a0,0,0,0,1,0,0H0a0,0,0,0,1,0,0V5.838A5.838,5.838,0,0,1,5.838,0Z" transform="translate(6.649)" fill="#3b2631"/><rect width="9.894" height="11.787" transform="translate(13.202 6.926)" fill="#3b2631"/><path d="M8.081,0h0a8.081,8.081,0,0,1,8.081,8.081v5.184a0,0,0,0,1,0,0H0a0,0,0,0,1,0,0V8.081A8.081,8.081,0,0,1,8.081,0Z" transform="translate(0 5.451)" fill="#3b2631"/></g><path d="M1462.809,1138.259a10.2,10.2,0,0,0,10.211,10.2h8.487l1.466-10.2Z" transform="translate(-1346.283 -982.596)" fill="#485278"/><path d="M0,0H80.086V8.18H0Z" transform="translate(56.601 147.569)" fill="#fff"/><path d="M0,0H13.071V8.235H0Z" transform="translate(94.557 155.805) rotate(180)" fill="#fff"/><rect width="3.097" height="8.091" transform="translate(109.554 155.75) rotate(180)" fill="#525f8a"/><rect width="3.097" height="8.175" transform="translate(73.648 155.774) rotate(180)" fill="#525f8a"/><rect width="3.097" height="8.091" transform="translate(132.812 155.661) rotate(180)" fill="#525f8a"/><path d="M1338.572,1219.532h-19.708l9.835,8.6Z" transform="translate(-1238.204 -1043.618)" fill="#3b2631"/><g transform="translate(103.564 240.603)"><path d="M1415.058,1485.572l.732-.565-4.269-5.85-.732.565Z" transform="translate(-1410.789 -1479.157)" fill="#485278"/></g><g transform="translate(103.418 246.174)"><path d="M1411.359,1508.834l.908-.172-1.157-7.149-.909.172Z" transform="translate(-1410.203 -1501.514)" fill="#485278"/></g><path d="M1316.192,651.481l6.183,106.3-11.831,10.731-8.8-10.936,8.86-106.093Z" transform="translate(-1225.353 -617.107)" fill="#292929"/><g transform="translate(113.862 76.458)"><rect width="16.784" height="0.92" transform="matrix(0.923, -0.384, 0.384, 0.923, 0, 6.439)" fill="#bda9a9"/></g><g transform="translate(115.641 74.611)"><rect width="6.143" height="0.92" transform="matrix(0.857, -0.516, 0.516, 0.857, 0, 3.168)" fill="#bda9a9"/></g><g transform="translate(62.663 118.954)"><rect width="0.92" height="8.615" transform="translate(0 0.85) rotate(-67.493)" fill="#bda9a9"/></g><g transform="translate(64.358 125.87)"><rect width="0.92" height="8.615" transform="translate(0 0.915) rotate(-84.183)" fill="#bda9a9"/></g><path d="M1296.136,1087.452l-48.407-38.966-30.416,37.343-.17,2.466s13.341,1.845,20.393-8.649,8.849-25.8,8.849-25.8,1.322,16.071,10.138,24.888c12.492,12.492,38.9,12.918,38.9,12.918Z" transform="translate(-1161.829 -915.191)" fill="#3b2631"/><path d="M1207.534,623.11l1.822,130.254s23.281,11.348,29.9-38.223c1.866,47.931,52.05,40.063,52.05,40.063l1.84-133.86-26.823-15.687s.485,9.579-4.667,25.983c-5.072,16.147-20.642,48.937-21.126,49.955l-.006.018-.006.006s-7.579-20.979-9.983-41.087c-2.367-19.851,2.692-32.907,2.815-33.238Z" transform="translate(-1154.614 -582.701)" fill="#4dec8c"/><path d="M0,0H17.12V6.439H0Z" transform="translate(116.042 110.941) rotate(71.845)" fill="#fff"/><path d="M1459.885,915.715l-6.531-19.2,46.729-16.393a10.578,10.578,0,0,1,13.173,4.415h0a10.644,10.644,0,0,1-5.982,15.458C1492.422,904.976,1459.885,915.715,1459.885,915.715Z" transform="translate(-1339.184 -788.171)" fill="#4dec8c"/><path d="M1535.121,739.986h0a11.773,11.773,0,0,0,4.605-16l-28.632-51.775a11.773,11.773,0,0,0-16-4.6h0a11.773,11.773,0,0,0-4.605,16l28.632,51.775A11.772,11.772,0,0,0,1535.121,739.986Z" transform="translate(-1365.962 -628.109)" fill="#4dec8c"/><path d="M1339.922,681.614c20.715-9.659,40.756-49.514,40.756-49.514l-12.8-5.672,12.8,1.38-14.957-22.15s.485,9.579-4.667,25.983c-5.072,16.147-20.642,48.937-21.126,49.955Z" transform="translate(-1254.016 -582.701)" fill="#515151"/><path d="M1243.5,631.362l-9.512,5.672s12.976,39.861,26.388,49.52c0,0-7.58-20.979-9.984-41.088-2.367-19.851,2.692-32.907,2.815-33.238l-19.219,21.127Z" transform="translate(-1174.479 -587.634)" fill="#515151"/><circle cx="2.702" cy="2.702" r="2.702" transform="matrix(0.23, -0.973, 0.973, 0.23, 81.394, 108.232)" fill="#3b2631"/><rect width="5.31" height="0.979" transform="translate(82.002 123.95)" fill="#3b2631"/></g><path d="M0,0H17.12V6.439H0Z" transform="translate(10.999 61.107) rotate(7.762)" fill="#e8e8e8"/><path d="M1025.641,591.9l-20.063-2.961-5.938,34.73a10.577,10.577,0,0,0,6.718,12.161h0a10.644,10.644,0,0,0,14.125-8.672C1022.7,611.651,1025.641,591.9,1025.641,591.9Z" transform="translate(-998.342 -522.825)" fill="#4dec8c"/><path d="M7.619,0H14.2a0,0,0,0,1,0,0V12.414a7.619,7.619,0,0,1-7.619,7.619h0A6.584,6.584,0,0,1,0,13.449V7.619A7.619,7.619,0,0,1,7.619,0Z" transform="translate(95.784 174.008) rotate(-91.877)" fill="#ff8f6e"/><g transform="translate(64.447)"><path d="M1263.3,376.825l-9.5,2.048,7.849,8.353Z" transform="translate(-1253.798 -363.562)" fill="#3b2631"/><g transform="translate(6.689 3.516)"><path d="M1320.682,354.018l1.081,8.408-.9.116,1.486,11.559a18,18,0,0,1-11.025,19.048,35.841,35.841,0,0,1-12.3,2.575,14.931,14.931,0,0,1-15.188-13.039l-3.026-23.541a19.662,19.662,0,0,1,3.93-14.518c3.07-3.99.979-5.934,6.356-6.625l.89-.114C1302.747,336.5,1319.3,343.252,1320.682,354.018Z" transform="translate(-1280.642 -337.707)" fill="#ff8f6e"/></g><g transform="translate(8.299 32.992)"><path d="M1303.514,470.706s9.665.8,14.243-6.731c1.654-2.722,1.972-7.5,1.972-7.5l3.661-.47,2.127,16.545s-1.956,12.089-20.714,14.5c-5.416.7-8.939.136-11.152-.651a5.477,5.477,0,0,1-3.626-4.451l-2.921-22.72s1.45,10.668,4.085,12.968Z" transform="translate(-1287.104 -456.004)" fill="#e07e62"/></g><g transform="translate(7.53 3.431)"><path d="M1284.017,350.678s10.77-1.378,17.6-2.249a5.482,5.482,0,0,1,2.468.242,5.542,5.542,0,0,1,3.734,4.548l.008.059a4.7,4.7,0,0,0,3.151,4.156,9.755,9.755,0,0,1,6.174,7.99l.265,2.057,6.531-.839-.56-4.356.9-.116-1.08-8.4a18.863,18.863,0,0,0-.67-3.137,19.613,19.613,0,0,0-7.771-10.615c-3.838-2.61-15.3-3.021-20.263-2.383l-.891.115c-5.372.69-3.284,2.633-6.354,6.623A19.743,19.743,0,0,0,1284.017,350.678Z" transform="translate(-1284.017 -337.364)" fill="#3b2631"/></g><path d="M1295.19,329.679s-12.632-8.509-24.733-5.4-12.524,12.486-12.524,12.486l6.5,3.577Z" transform="translate(-1256.903 -323.595)" fill="#3b2631"/><path d="M1375.211,350.7l3.033,3.186,13.619,14.311.679-1.872,2.9-8,2.747-7.585s-6.864-6.775-13.219-5.293c-.6.137-1.174.3-1.724.474A19.636,19.636,0,0,0,1375.211,350.7Z" transform="translate(-1344.959 -339.843)" fill="#3b2631"/><path d="M1363.317,380.206l-.177.255.357.108a5.542,5.542,0,0,1,3.734,4.548l.008.059a4.7,4.7,0,0,0,3.151,4.156,9.756,9.756,0,0,1,6.174,7.99l.264,2.057,3.655-.47,2.522-3.121-.207-1.6.9-.116-.226-1.756,2.9-8c-1.312-.57-2.831-1.2-4.425-1.788a41.623,41.623,0,0,0-7.676-2.163,42.223,42.223,0,0,0-5.1-.49A25.918,25.918,0,0,0,1363.317,380.206Z" transform="translate(-1335.896 -365.832)" fill="#ab5f4d"/><g transform="translate(44.302 26.218)"><path d="M1435.4,428.856h0a4.3,4.3,0,0,1,4.818,3.721l1.134,8.824a4.3,4.3,0,0,1-3.721,4.818l-4.319.555-1.677-13.044A4.355,4.355,0,0,1,1435.4,428.856Z" transform="translate(-1431.599 -428.82)" fill="#ff8f6e"/></g><g transform="translate(13.991 39.512)"><path d="M1309.95,482.4l.11,1.13a3.883,3.883,0,0,0,4.362,3.476l-.233-1.813a2.053,2.053,0,0,1-2.308-1.841l-.115-1.186Z" transform="translate(-1309.95 -482.171)" fill="#cf5e4e"/></g><path d="M1351.127,460.206a2.252,2.252,0,1,1,4.361-.561Z" transform="translate(-1326.855 -423.904)" fill="#3b2631"/><path d="M1294.97,468.112c-.187-1.452.46-2.732,1.445-2.859s1.935.948,2.121,2.4Z" transform="translate(-1284.687 -429.949)" fill="#3b2631"/><path d="M1343.894,432.633a9.327,9.327,0,0,0-2.734,1.944,1.583,1.583,0,0,1-1.986-.054,1.737,1.737,0,0,1-.193-2.083,11.637,11.637,0,0,1,3.518-2.523,12.864,12.864,0,0,1,4.289-1.1C1347.449,428.789,1345.574,431.857,1343.894,432.633Z" transform="translate(-1317.557 -402.602)" fill="#3b2631"/><path d="M1292.483,447.232a1.011,1.011,0,0,1-.509-.409,2.66,2.66,0,0,0-1.166-.946c-.711-.253-2.6-2.073-2.015-2.271a4.25,4.25,0,0,1,5.011,1.786,1.286,1.286,0,0,1-.32,1.661A1.049,1.049,0,0,1,1292.483,447.232Z" transform="translate(-1279.99 -413.54)" fill="#3b2631"/><path d="M1364.575,351.149s-9.006,6.128-9.434,8.792l-2.052-1.114S1355.5,355.308,1364.575,351.149Z" transform="translate(-1328.349 -344.284)" fill="#ff8f6e"/></g><g transform="translate(30.913 78.151)"><path d="M1163.833,794.447c-.62,0-.883-.758-1.276-1.9-.094-.273-.229-.661-.349-.948-.143.286-.307.691-.42.972-.443,1.1-.75,1.87-1.426,1.87-.677-.021-.95-.849-1.329-1.993-.1-.3-.245-.74-.372-1.03-.17.276-.38.71-.523,1.005-.516,1.065-.882,1.834-1.55,1.769s-.888-.914-1.183-2.084c-.077-.307-.191-.758-.3-1.056-.191.262-.435.68-.6.964-.6,1.024-1.027,1.763-1.683,1.644s-.811-.983-1.008-2.174c-.052-.314-.128-.775-.21-1.081-.213.244-.494.64-.684.908-.686.969-1.182,1.669-1.824,1.49s-.717-1.052-.8-2.257c-.022-.319-.056-.787-.109-1.1-.236.222-.554.589-.77.838-.78.9-1.344,1.545-1.966,1.3s-.6-1.119-.566-2.325c.01-.32.026-.793,0-1.109-.258.194-.614.525-.854.749-.873.811-1.5,1.4-2.1,1.086s-.478-1.177-.3-2.371c.046-.319.114-.79.128-1.107-.278.163-.669.451-.934.646-.962.707-1.657,1.218-2.213.84s-.338-1.222-.028-2.386c.083-.313.206-.774.257-1.089-.294.13-.714.369-1,.53-1.04.591-1.792,1.02-2.3.577s-.192-1.251.25-2.368c.119-.3.3-.747.383-1.055-.306.1-.749.284-1.049.412-1.1.469-1.9.808-2.355.311s-.05-1.262.512-2.321c.153-.287.377-.711.5-1.007-.314.062-.771.2-1.082.295-1.148.348-1.977.6-2.378.056s.083-1.259.75-2.251c.181-.27.449-.667.6-.951-.318.031-.784.124-1.1.187-1.177.233-2.027.4-2.374-.178s.2-1.243.956-2.168c.206-.252.509-.622.687-.89-.32,0-.79.054-1.11.089-1.192.128-2.053.221-2.35-.384s.3-1.222,1.133-2.08c.225-.233.556-.576.756-.829-.317-.021-.789-.006-1.109,0-1.2.037-2.063.062-2.313-.563s.393-1.2,1.28-1.99c.241-.216.594-.532.812-.77-.316-.042-.785-.06-1.1-.071-1.2-.045-2.061-.076-2.27-.715s.469-1.168,1.4-1.905c.253-.2.624-.492.856-.715-.313-.061-.778-.1-1.1-.135-1.192-.114-2.052-.2-2.224-.844s.532-1.139,1.5-1.825c.262-.185.648-.457.892-.666-.31-.076-.771-.143-1.086-.189-1.183-.174-2.037-.3-2.177-.954s.585-1.113,1.589-1.752c.27-.172.666-.424.919-.622-.306-.089-.763-.177-1.075-.236-1.173-.225-2.021-.387-2.133-1.047s.632-1.088,1.66-1.686c.277-.161.681-.4.942-.582-.3-.1-.756-.205-1.065-.277-1.163-.269-2-.463-2.09-1.126s.67-1.065,1.72-1.625c.281-.151.692-.37.96-.547-.3-.111-.749-.23-1.055-.312-1.152-.307-1.984-.529-2.051-1.192s.7-1.044,1.77-1.573c.285-.141.7-.348.974-.516-.3-.119-.742-.252-1.046-.342-1.141-.339-1.966-.584-2.014-1.248s.732-1.025,1.813-1.525c.288-.134.709-.328.986-.489-.294-.126-.735-.269-1.037-.368-1.132-.367-1.949-.632-1.982-1.3s.757-1.008,1.849-1.484c.29-.126.714-.31.994-.464-.292-.133-.729-.286-1.029-.39-1.123-.391-1.934-.674-1.952-1.338s.777-.993,1.879-1.446c.292-.12.718-.3,1-.444-.289-.138-.724-.3-1.022-.409-1.114-.411-1.919-.708-1.926-1.372s.8-.98,1.9-1.414c.293-.115.72-.283,1.006-.426-.287-.143-.719-.309-1.015-.424-1.107-.427-1.906-.736-1.9-1.4s.81-.97,1.927-1.389c.293-.11.722-.271,1.009-.41-.286-.147-.716-.319-1.011-.438-1.1-.441-1.895-.759-1.884-1.421s.821-.96,1.943-1.367c.294-.107.723-.263,1.011-.4-.285-.149-.713-.326-1.007-.447-1.095-.451-1.885-.777-1.869-1.437s.83-.955,1.956-1.353c.294-.1.722-.255,1.011-.388-.284-.151-.712-.331-1.005-.454-1.09-.457-1.878-.788-1.857-1.447s.836-.951,1.965-1.344c.293-.1.721-.251,1.01-.381-.284-.153-.713-.333-1.007-.458-1.087-.459-1.872-.791-1.85-1.448s.839-.952,1.969-1.344c.292-.1.716-.249,1-.378-.285-.153-.715-.333-1.009-.457-1.085-.456-1.869-.786-1.849-1.441s.837-.957,1.967-1.356c.29-.1.711-.251,1-.381-.288-.151-.72-.329-1.016-.451-1.085-.446-1.868-.769-1.856-1.423.014-.67.829-.969,1.957-1.382.286-.1.7-.257.985-.389-.292-.147-.729-.318-1.028-.436-1.087-.425-1.873-.733-1.873-1.382,0-.6.66-.751,1.975-1.054l.182-.042-.168-.04c-1.321-.316-1.984-.473-1.979-1.076s.665-.747,1.981-1.042l.188-.042-.174-.043c-1.318-.324-1.979-.487-1.971-1.088s.671-.743,1.99-1.029l.187-.041-.177-.044c-1.314-.333-1.974-.5-1.962-1.1s.675-.74,2-1.019l.189-.04-.181-.047c-1.312-.34-1.971-.512-1.955-1.113s.679-.736,2-1.008l.184-.038-.175-.046c-1.311-.346-1.968-.52-1.95-1.121s.683-.733,2.008-1l.184-.037-.177-.047c-1.309-.352-1.965-.529-1.944-1.13s.687-.73,2.013-.99l.185-.036-.177-.049c-1.306-.358-1.962-.538-1.938-1.138s.69-.728,2.019-.983l.183-.035-.177-.049c-1.3-.363-1.959-.545-1.934-1.145s.693-.726,2.023-.975l.182-.034-.178-.05c-1.3-.368-1.956-.553-1.927-1.152s.7-.722,2.026-.967l.181-.033-.176-.05c-1.3-.372-1.954-.559-1.924-1.158s.7-.721,2.031-.961l.177-.032-.174-.051c-1.3-.376-1.952-.564-1.919-1.164s.7-.718,2.035-.954l.173-.031-.173-.051c-1.3-.379-1.948-.569-1.915-1.167s.7-.716,2.038-.947l.173-.03-.172-.051c-1.3-.383-1.946-.575-1.911-1.173s.706-.714,2.041-.942l.172-.03-.173-.052c-1.294-.386-1.943-.58-1.907-1.178s.708-.713,2.045-.937l.169-.029-.171-.052c-1.293-.389-1.942-.584-1.9-1.182s.71-.711,2.048-.931l.166-.028-.168-.051c-1.292-.392-1.941-.589-1.9-1.187s.712-.709,2.051-.928l.171-.028-.176-.054c-1.29-.4-1.938-.6-1.9-1.192s.714-.708,2.053-.922l.171-.028-.176-.055c-1.289-.4-1.935-.6-1.893-1.2s.716-.706,2.057-.918l.169-.027-.177-.056c-1.287-.4-1.933-.6-1.888-1.2s.718-.7,2.061-.914l.166-.026-.176-.056c-1.285-.4-1.93-.607-1.885-1.2s.72-.7,2.062-.91l.166-.026-.177-.056c-1.283-.406-1.928-.61-1.881-1.205s.722-.7,2.067-.906l.162-.025-.177-.056c-1.281-.409-1.925-.614-1.877-1.209s.724-.7,2.07-.9l.162-.024-.182-.059c-1.279-.411-1.921-.617-1.872-1.211s.727-.7,2.075-.9l.159-.024-.183-.059c-1.277-.413-1.918-.62-1.868-1.214s.729-.7,2.081-.9l.155-.022-.186-.061c-1.274-.415-1.913-.623-1.861-1.216s.732-.7,2.086-.893l.15-.021-.19-.063c-1.269-.416-1.907-.625-1.854-1.216s.736-.7,2.094-.891l.146-.021-.2-.066c-1.263-.417-1.9-.626-1.844-1.215.055-.607.741-.7,2.108-.891l.137-.019-.216-.072c-1.292-.43-1.882-.626-1.827-1.213.057-.611.749-.706,2.13-.894l.123-.017-.25-.084c-1.272-.426-1.852-.62-1.8-1.2.059-.624.815-.724,2.186-.907l.105-.014c-.141-.049-.277-.094-.394-.134-1.229-.415-1.739-.586-1.684-1.142.082-.832,1.151-.88,2.282-.931a5.3,5.3,0,0,0,1.115-.114.347.347,0,0,0-.156.264l1.043.108c-.072.7-.9.742-1.955.79l-.352.017.042.014c1.362.459,2.112.713,2.049,1.356-.055.572-.652.652-1.958.826l-.293.039.1.033c1.332.446,2,.67,1.943,1.285-.055.583-.667.667-2.008.85l-.233.032.12.04c1.314.438,1.973.657,1.917,1.265-.054.588-.713.679-2.027.861l-.207.029.129.042c1.305.431,1.961.647,1.907,1.252s-.716.684-2.036.87l-.2.028.136.045c1.3.427,1.954.641,1.9,1.244s-.717.687-2.04.876l-.19.027.141.046c1.3.423,1.951.635,1.9,1.237s-.717.69-2.043.882l-.186.027.145.047c1.3.419,1.949.63,1.9,1.231s-.716.692-2.044.888l-.183.027.148.047c1.3.416,1.948.626,1.9,1.226s-.715.694-2.045.893l-.179.026.149.048c1.3.413,1.947.62,1.9,1.22s-.715.7-2.045.9l-.177.027.15.048c1.3.41,1.946.616,1.9,1.216s-.714.7-2.046.9l-.176.027.154.049c1.3.407,1.946.612,1.9,1.211s-.713.7-2.044.907l-.177.028.155.048c1.3.4,1.947.607,1.9,1.207s-.712.7-2.043.912l-.175.028.157.049c1.3.4,1.947.6,1.9,1.2s-.71.7-2.043.918l-.174.028.159.049c1.3.4,1.947.6,1.906,1.2s-.709.706-2.041.923l-.171.028.156.048c1.3.393,1.948.591,1.909,1.19s-.708.707-2.04.928l-.167.028.154.046c1.3.391,1.949.587,1.911,1.186s-.706.709-2.038.933l-.167.028.157.047c1.3.388,1.949.582,1.913,1.181s-.7.712-2.036.939l-.169.029.16.047c1.3.384,1.95.577,1.916,1.175s-.7.714-2.034.945l-.165.029.157.046c1.3.379,1.952.571,1.919,1.169s-.7.716-2.031.952l-.168.03.162.047c1.3.375,1.952.564,1.921,1.163s-.7.719-2.029.959l-.169.031.165.048c1.3.371,1.953.558,1.924,1.156s-.7.722-2.028.967l-.169.031.166.047c1.3.367,1.954.552,1.928,1.151s-.694.724-2.023.973l-.17.032.168.047c1.3.362,1.956.544,1.931,1.143s-.691.727-2.02.982l-.169.032.168.047c1.3.357,1.957.536,1.935,1.135s-.689.731-2.018.991l-.166.033.168.045c1.3.351,1.959.528,1.939,1.127s-.686.733-2.013,1l-.164.033.167.045c1.305.345,1.961.518,1.944,1.116s-.683.737-2.01,1.009l-.164.034.17.044c1.306.339,1.962.509,1.948,1.108s-.678.741-2,1.021l-.163.034.168.042c1.308.331,1.965.5,1.955,1.1s-.675.745-2,1.032l-.155.034.164.041c1.309.322,1.966.483,1.96,1.081s-.671.749-1.995,1.046l-.151.034.164.039c1.311.312,1.969.47,1.966,1.067s-.666.753-1.988,1.058c-.194.044-.431.1-.651.155.236.1.5.2.7.283,1.125.441,1.937.759,1.929,1.435-.008.655-.8.947-1.907,1.351-.3.112-.75.275-1.044.416.28.146.7.316.982.434,1.112.457,1.915.788,1.9,1.46-.017.656-.819.939-1.929,1.331-.3.107-.746.263-1.04.4.279.148.694.322.979.441,1.1.464,1.9.8,1.881,1.47s-.826.936-1.939,1.323c-.3.1-.741.258-1.035.391.28.148.695.324.98.445,1.1.466,1.9.8,1.875,1.469s-.827.939-1.942,1.327c-.3.1-.737.257-1.031.391.281.148.7.323.984.443,1.1.461,1.9.8,1.876,1.461s-.824.944-1.937,1.337c-.3.106-.733.26-1.026.395.282.146.7.319.989.437,1.1.454,1.9.782,1.884,1.446s-.818.951-1.93,1.354c-.3.107-.728.265-1.019.4.284.144.7.312.993.428,1.1.443,1.9.763,1.9,1.427s-.808.96-1.916,1.376c-.294.111-.723.272-1.012.411.286.14.708.3,1,.415,1.109.428,1.911.738,1.912,1.4s-.795.972-1.9,1.4c-.292.115-.718.282-1,.425.288.136.714.294,1.006.4,1.114.411,1.92.708,1.932,1.37s-.78.986-1.875,1.437c-.29.119-.711.293-.995.44.291.131.719.281,1.014.383,1.121.39,1.931.672,1.956,1.334s-.76,1-1.846,1.473c-.287.125-.7.307-.985.46.294.125.726.265,1.023.361,1.128.366,1.942.631,1.982,1.29s-.738,1.019-1.813,1.516c-.283.131-.695.322-.971.481.3.117.732.247,1.031.336,1.135.337,1.956.581,2.012,1.239s-.711,1.038-1.773,1.564c-.279.138-.684.339-.956.506.3.109.739.226,1.041.306,1.143.3,1.969.524,2.045,1.179s-.68,1.06-1.726,1.619c-.274.146-.671.359-.937.533.3.1.746.2,1.05.272,1.152.266,1.984.458,2.082,1.109s-.643,1.083-1.668,1.679c-.267.155-.656.38-.916.564.308.088.752.173,1.058.232,1.16.222,2,.383,2.121,1.028s-.6,1.108-1.6,1.745c-.26.166-.637.406-.89.6.311.074.758.139,1.065.184,1.168.172,2.011.3,2.163.933s-.547,1.135-1.517,1.818c-.251.177-.615.433-.858.638.315.058.763.1,1.073.131,1.173.112,2.021.193,2.206.821s-.486,1.162-1.417,1.9c-.241.189-.589.464-.82.681.317.04.766.056,1.075.067,1.177.044,2.028.075,2.25.691s-.414,1.189-1.3,1.98c-.228.2-.556.5-.773.729.319.018.766,0,1.074-.005,1.177-.034,2.026-.06,2.289.536s-.328,1.216-1.15,2.067c-.211.219-.516.535-.717.78.319-.007.761-.054,1.066-.088,1.169-.125,2.014-.217,2.324.356s-.229,1.237-.977,2.152c-.191.234-.468.573-.648.834.317-.036.749-.121,1.049-.181,1.153-.23,1.986-.394,2.347.148s-.114,1.251-.771,2.23c-.169.251-.412.612-.566.888.311-.067.729-.193,1.02-.282,1.125-.341,1.937-.588,2.351-.085s.015,1.254-.537,2.293c-.141.267-.345.65-.471.941.3-.1.7-.27.976-.388,1.083-.462,1.865-.794,2.331-.339s.153,1.241-.278,2.333c-.111.281-.271.685-.363.989.286-.134.659-.346.92-.495,1.024-.583,1.763-1,2.28-.605s.3,1.213-.006,2.345c-.078.293-.19.714-.246,1.027.267-.166.612-.419.852-.6.952-.7,1.638-1.2,2.2-.87s.434,1.169.267,2.326c-.044.3-.106.735-.126,1.055.246-.2.559-.486.776-.689.867-.805,1.494-1.388,2.09-1.117s.561,1.111.523,2.279c-.01.306-.024.748-.008,1.068.224-.22.5-.543.7-.768.777-.9,1.338-1.54,1.962-1.336s.673,1.046.756,2.21c.022.308.053.753.1,1.07.2-.241.449-.591.621-.834.686-.97,1.183-1.674,1.824-1.523s.769.977.96,2.129c.051.307.124.749.2,1.061.179-.257.4-.629.547-.888.6-1.028,1.035-1.767,1.687-1.678s.848.91,1.133,2.043c.076.3.187.74.292,1.045.159-.27.348-.661.479-.932.519-1.072.9-1.834,1.554-1.8s.913.845,1.281,1.956c.1.3.241.729.369,1.026.141-.281.3-.686.417-.966.446-1.105.769-1.9,1.431-1.9.635,0,.9.767,1.3,1.929.073.209.169.49.264.735.082-.261.163-.561.222-.784.315-1.167.523-1.937,1.145-1.981.642-.056.953.7,1.437,1.829.087.2.2.472.315.709.06-.266.117-.568.16-.793.224-1.186.372-1.97.988-2.063s1,.622,1.578,1.706c.1.194.238.45.368.677.037-.267.068-.569.091-.8.121-1.2.2-2,.807-2.141s1.055.532,1.721,1.558c.119.182.275.424.424.637.012-.267.014-.568.015-.792.009-1.208.014-2.005.6-2.209s1.1.426,1.861,1.382c.135.169.314.393.482.591-.015-.265-.043-.56-.064-.783-.113-1.2-.187-2,.377-2.261s1.135.311,1.99,1.182c.151.154.352.359.539.537-.043-.261-.1-.548-.144-.766-.239-1.186-.4-1.969.138-2.29s1.16.189,2.1.963c.167.137.389.32.6.478-.07-.253-.158-.533-.224-.742-.364-1.156-.6-1.919-.106-2.3s1.173.065,2.188.734c.183.12.425.28.647.416-.1-.245-.213-.513-.3-.715-.484-1.113-.8-1.849-.346-2.275s1.171-.056,2.25.505c.195.1.454.236.691.349-.12-.234-.263-.49-.37-.682-.593-1.061-.985-1.763-.57-2.233s1.159-.17,2.286.285c.206.083.48.194.729.284-.142-.223-.309-.466-.435-.649-.689-1-1.145-1.666-.775-2.173s1.139-.273,2.3.08c.215.065.5.152.758.22-.16-.21-.348-.44-.49-.612-.773-.943-1.283-1.565-.956-2.1s1.113-.364,2.3-.106c.221.048.516.113.78.16-.177-.2-.383-.415-.538-.577-.843-.883-1.4-1.465-1.113-2.026s1.084-.445,2.287-.271c.226.032.527.075.795.1-.191-.188-.413-.391-.58-.543-.9-.824-1.5-1.367-1.246-1.947s1.052-.515,2.266-.419c.228.018.533.042.8.053-.2-.177-.439-.368-.616-.51-.95-.767-1.578-1.275-1.361-1.868s1.021-.576,2.239-.549c.23,0,.538.01.81.007-.213-.166-.461-.346-.646-.479-.99-.716-1.645-1.189-1.459-1.793s.99-.627,2.209-.663c.23-.007.54-.016.812-.035-.221-.157-.48-.325-.672-.451-1.024-.667-1.7-1.107-1.543-1.72s.961-.673,2.178-.765c.231-.017.541-.04.812-.072-.229-.148-.5-.306-.694-.423-1.052-.622-1.747-1.034-1.616-1.653s.933-.713,2.146-.855c.23-.027.54-.064.81-.105-.236-.139-.51-.288-.714-.4-1.075-.58-1.785-.964-1.677-1.588s.906-.748,2.115-.935c.229-.036.538-.083.806-.136-.241-.132-.522-.271-.731-.374-1.094-.542-1.817-.9-1.731-1.527s.881-.779,2.083-1.007c.229-.043.535-.1.8-.163-.246-.124-.533-.254-.746-.352-1.111-.506-1.844-.84-1.779-1.47s.856-.807,2.052-1.073c.227-.05.532-.118.8-.188-.25-.117-.542-.24-.759-.331-1.125-.473-1.867-.785-1.82-1.416s.833-.832,2.023-1.132c.225-.057.528-.133.79-.21-.254-.11-.551-.226-.77-.311-1.136-.441-1.887-.733-1.856-1.365s.813-.855,1.995-1.187c.224-.062.524-.147.784-.231-.258-.1-.56-.213-.783-.294-1.146-.412-1.9-.684-1.887-1.315s.792-.877,1.967-1.238c.222-.068.52-.16.777-.25-.261-.1-.567-.2-.794-.276-1.154-.384-1.916-.638-1.916-1.268s.772-.9,1.941-1.286c.219-.073.515-.171.769-.267-.265-.094-.575-.189-.8-.26-1.159-.356-1.926-.592-1.941-1.222s.754-.915,1.917-1.331c.216-.078.507-.181.758-.282-.268-.089-.583-.178-.814-.243-1.165-.33-1.934-.549-1.962-1.176s.736-.934,1.894-1.376c.213-.082.5-.191.746-.3-.273-.083-.593-.167-.829-.229-1.166-.3-1.937-.505-1.978-1.129-.042-.644.72-.955,1.874-1.424.219-.089.494-.2.73-.307-.278-.08-.607-.157-.849-.215-1.164-.277-1.933-.46-1.987-1.078-.057-.65.706-.98,1.861-1.478.212-.092.478-.206.707-.315-.289-.076-.634-.15-.887-.2-1.192-.256-1.912-.41-1.979-1.017-.073-.665.743-1.04,1.873-1.559.2-.092.453-.208.671-.317-.325-.082-.736-.158-1.031-.213-1.162-.216-1.8-.335-1.881-.906-.129-.939.958-1.341,1.918-1.7a4.2,4.2,0,0,0,1.006-.458.238.238,0,0,0-.036.176l1.035-.173c.131.783-.77,1.116-1.64,1.438a8.37,8.37,0,0,0-1.011.427c.248.058.561.116.8.161,1.277.237,2.2.409,2.285,1.107.074.6-.586.9-1.679,1.407-.252.116-.6.277-.88.423.248.063.538.125.767.174,1.246.267,2.069.443,2.134,1.1.061.619-.624.915-1.758,1.4-.239.1-.566.245-.833.376.253.07.551.141.786.2,1.221.29,2.027.482,2.077,1.133.048.626-.69.926-1.807,1.381-.235.1-.555.226-.821.348.261.08.567.16.794.219,1.206.315,2,.522,2.038,1.17.035.63-.714.916-1.846,1.349-.233.089-.552.21-.816.326.262.086.569.173.8.237,1.194.339,1.983.562,2,1.209s-.735.9-1.88,1.314c-.233.083-.552.2-.818.306.262.092.57.187.8.257,1.183.364,1.965.6,1.972,1.249s-.757.89-1.914,1.275c-.234.078-.553.184-.82.287.26.1.569.2.8.277,1.172.39,1.947.648,1.939,1.292s-.779.873-1.946,1.232c-.235.072-.556.171-.824.267.258.106.565.216.791.3,1.161.418,1.929.693,1.906,1.336s-.8.855-1.979,1.185c-.237.066-.558.157-.829.246.257.112.563.231.787.318,1.149.446,1.908.742,1.868,1.383s-.824.834-2.012,1.133c-.237.06-.56.141-.832.223.254.12.557.247.779.341,1.135.477,1.885.792,1.828,1.432s-.848.812-2.045,1.078c-.239.053-.564.125-.838.2.251.128.551.264.771.365,1.12.51,1.86.847,1.784,1.484s-.874.787-2.079,1.016c-.24.046-.568.108-.844.173.247.136.544.283.762.391,1.1.547,1.831.907,1.733,1.541s-.9.757-2.113.945c-.242.038-.572.089-.851.144.243.146.536.3.75.42,1.082.584,1.8.97,1.677,1.6s-.927.725-2.149.868c-.243.029-.575.067-.855.112.238.155.526.326.736.45,1.058.626,1.757,1.04,1.611,1.664s-.957.687-2.184.78c-.245.018-.578.044-.86.077.231.166.512.349.718.483,1.03.671,1.711,1.114,1.538,1.733s-.987.643-2.219.679c-.245.007-.581.017-.864.038.224.178.5.375.7.52,1,.72,1.654,1.2,1.451,1.8s-1.02.594-2.251.567c-.247-.005-.583-.014-.867-.006.214.189.478.4.671.558.957.773,1.588,1.283,1.351,1.881s-1.052.535-2.281.439c-.246-.019-.583-.046-.868-.055.2.2.454.433.638.6.908.829,1.508,1.378,1.234,1.96s-1.083.467-2.3.292c-.245-.035-.583-.084-.867-.112.189.217.427.466.6.646.851.89,1.413,1.478,1.1,2.039s-1.113.39-2.32.127c-.244-.053-.578-.125-.861-.174.172.232.391.5.55.692.781.952,1.3,1.582.939,2.119s-1.141.3-2.323-.058c-.24-.073-.57-.173-.849-.244.152.246.348.532.491.739.7,1.017,1.16,1.689.755,2.193s-1.161.2-2.307-.262c-.234-.094-.557-.224-.83-.32.129.259.3.563.422.784.6,1.079,1,1.791.549,2.256s-1.174.088-2.27-.482c-.225-.117-.536-.279-.8-.4.1.271.241.591.342.823.493,1.135.818,1.885.321,2.3s-1.176-.031-2.207-.71c-.213-.141-.507-.335-.758-.483.073.28.178.612.254.853.372,1.182.618,1.963.079,2.327s-1.166-.155-2.116-.938c-.2-.163-.472-.388-.706-.562.043.285.111.626.161.873.245,1.218.406,2.022-.17,2.326s-1.14-.277-2-1.156c-.18-.183-.429-.437-.644-.635.013.287.046.631.069.881.116,1.237.192,2.054-.413,2.3s-1.1-.394-1.87-1.354c-.16-.2-.382-.478-.575-.7-.015.286-.018.629-.02.879-.009,1.244-.015,2.065-.641,2.248s-1.059-.5-1.727-1.528c-.14-.216-.333-.513-.505-.751-.042.282-.076.622-.1.869-.126,1.237-.208,2.055-.848,2.179s-1.009-.593-1.581-1.675c-.12-.227-.285-.539-.435-.791-.065.277-.128.609-.174.852-.231,1.222-.383,2.03-1.031,2.1s-.955-.672-1.438-1.8c-.1-.235-.24-.558-.368-.82-.086.27-.174.6-.238.832-.324,1.2-.538,1.993-1.188,2.015Z" transform="translate(-1119.211 -637.246)" fill="#3b2631"/></g><g transform="translate(21.326 20.375)"><circle cx="8.225" cy="8.225" r="8.225" transform="translate(2.417 11.631) rotate(-45)" fill="#543645"/><ellipse cx="8.224" cy="8.224" rx="8.224" ry="8.224" transform="translate(3.585 46.23) rotate(-12.11)" fill="#543645"/><g transform="translate(0 3.453)"><path d="M1091.558,434.846a7.4,7.4,0,0,0,7.535-7.259l.014-.778a7.363,7.363,0,0,0-9.99-7.064,12.4,12.4,0,0,0-7.771,11.277l-.014.763-.053,2.869-.475,25.47-.048,2.594-.02,1.039a12.4,12.4,0,0,0,7.345,11.559,7.363,7.363,0,0,0,10.247-6.687l.014-.778a7.4,7.4,0,0,0-7.259-7.535h0l.475-25.47Z" transform="translate(-1080.734 -419.224)" fill="#3b2631"/></g></g><path d="M0,0H2.709A20.033,20.033,0,0,1,22.741,20.033v0a0,0,0,0,1,0,0H20.033A20.033,20.033,0,0,1,0,0V0A0,0,0,0,1,0,0Z" transform="translate(11.249 61.748) rotate(-70.799)" fill="#ff8f6e"/><g transform="translate(55.179 126.793)"><g transform="translate(7.192 0)"><path d="M1289.969,844.408h-34.525l-9.134-8.543c-1.069-1.262.508-3.4,2.34-3.4h27.891a7.75,7.75,0,0,1,5.252,2.286Z" transform="translate(-1245.839 -832.465)" fill="#543645"/><path d="M1287.967,849.564h-34.526l-7.525-9.574c-.983-1.251-.3-2.266,1.536-2.266h27.892a7.242,7.242,0,0,1,5.1,2.266Z" transform="translate(-1245.468 -836.414)" fill="#3b2631"/></g><path d="M1305.342,885.062h-48.981l-26.884-32.718h48.981Z" transform="translate(-1226.269 -847.39)" fill="#3b2631"/><path d="M1219.81,852.343l26.884,32.719h-11.106s-8.06-1.312-13.255-11.044a48.721,48.721,0,0,1-5.732-17.809Z" transform="translate(-1216.602 -847.39)" fill="#3b2631"/><path d="M1416.389,852.343l26.884,32.719h-11.1s-8.061-1.312-13.255-11.044a48.72,48.72,0,0,1-5.732-17.809Z" transform="translate(-1364.2 -847.39)" fill="#543645"/><path d="M1223.04,854.276h48.981l1.6-1.933h-48.98Z" transform="translate(-1221.435 -847.39)" fill="#bfbfbf"/><path d="M1421.222,852.343l26.884,32.718h-2.283l-26.206-30.786Z" transform="translate(-1369.033 -847.39)" fill="#dedede"/><g transform="translate(12.873 25.971)"><path d="M1268.356,938.148h26.632l1.526-1.45h-26.2Z" transform="translate(-1268.334 -936.698)" fill="#bfbfbf"/><path d="M1376.767,936.7a23.031,23.031,0,0,0,4.1,6.678c2.821,3.158,7.926,5.022,7.926,5.022h-13.55v-10.25Z" transform="translate(-1348.587 -936.698)" fill="#543645"/><rect width="26.654" height="10.25" transform="translate(0 1.45)" fill="#9c9c9c"/></g></g></g></g></svg>