<svg xmlns="http://www.w3.org/2000/svg" width="28.342" height="16.843" viewBox="0 0 28.342 16.843"><g transform="translate(-14.753 -136.704)"><g transform="translate(14.753 136.704)"><path d="M32.922,139.46h0L24.712,132.4a1.75,1.75,0,0,0-2.222,0,1.232,1.232,0,0,0,.005,1.921l5.511,4.742-21.395.1a1.373,1.373,0,1,0,0,2.717l21.395-.1L22.5,146.522a1.232,1.232,0,0,0-.005,1.921,1.75,1.75,0,0,0,2.222,0l8.209-7.063h0A1.234,1.234,0,0,0,32.922,139.46Z" transform="translate(-5.041 -132)" fill="#4dec8c"/></g></g></svg>