<svg xmlns="http://www.w3.org/2000/svg" width="24.965" height="19.929" viewBox="0 0 24.965 19.929"><g transform="translate(0 -45.22)"><g transform="translate(9.926 52.876)"><g transform="translate(0 0)"><path d="M211.063,202.551a1.135,1.135,0,0,0-1.605,0l-3.237,3.237a2.165,2.165,0,1,0,1.605,1.605l3.237-3.237A1.135,1.135,0,0,0,211.063,202.551Z" transform="translate(-203.561 -202.218)" fill="#707070"/></g></g><g transform="translate(0.001 45.22)"><g transform="translate(0)"><path d="M21.313,48.872A12.488,12.488,0,0,0,2.1,64.646a1.135,1.135,0,0,0,1.886-1.264,10.143,10.143,0,0,1-1.654-4.515H3.4a1.135,1.135,0,0,0,0-2.27H2.331a10.222,10.222,0,0,1,2.156-5.256l.772.772a1.135,1.135,0,0,0,1.605-1.605l-.776-.776A10.174,10.174,0,0,1,11.4,47.548V48.62a1.135,1.135,0,0,0,2.27,0V47.558a10.168,10.168,0,0,1,5.211,2.175l-.775.775a1.135,1.135,0,0,0,1.606,1.605l.772-.772A10.22,10.22,0,0,1,22.635,56.6H21.564c-.627,0-.627,2.27,0,2.27h1.067a10.142,10.142,0,0,1-1.655,4.515,1.135,1.135,0,1,0,1.886,1.264A12.51,12.51,0,0,0,21.313,48.872Z" transform="translate(-0.001 -45.221)" fill="#707070"/></g></g></g></svg>