<svg xmlns="http://www.w3.org/2000/svg" width="536.032" height="336.136" viewBox="0 0 536.032 336.136"><g transform="translate(-130.684 -106.144)"><g transform="translate(149.587 131.847)" opacity="0.4"><path d="M284.584,208.811v-77.7l-37.723,57.6v95.774h-24.3V147.223h-6.18l-17.6-22.972-17.692,22.972h-6.077V332.455h0v2.763h0v98.127h168.5V208.811ZM216.379,258.06H181.192v-5.022h35.187Zm0-10.021H181.192v-5.022h35.187Zm0-10.022H181.192v-5.01h35.187Zm0-10.021H181.192v-5.01h35.187Zm0-10.012H181.192v-5.02h35.187Zm0-10.021H181.192v-5.02h35.187Zm0-10.021H181.192v-5.01h35.187Zm0-10.021H181.192V182.91h35.187Zm0-10.021H181.192v-5.011h35.187Zm0-10.012H181.192v-5.02h35.187Zm0-10.021H181.192v-5.011h35.187ZM279.8,401.94h-3.652V155.356l3.652-5.592Z" transform="translate(-175.012 -124.251)" fill="#cfeffe"/><path d="M526.2,208.811v-77.7l-37.723,57.6v95.774h-24.3V147.223H458l-17.6-22.972-17.692,22.972h-6.077V332.455H327.213V433.345H585.131V208.811ZM458,258.06H422.811v-5.022H458Zm0-10.021H422.811v-5.022H458Zm0-10.022H422.811v-5.01H458ZM458,228H422.811v-5.01H458Zm0-10.012H422.811v-5.02H458Zm0-10.021H422.811v-5.02H458Zm0-10.021H422.811v-5.01H458Zm0-10.021H422.811V182.91H458Zm0-10.021H422.811v-5.011H458Zm0-10.012H422.811v-5.02H458Zm0-10.021H422.811v-5.011H458Zm63.42,244.073h-3.652V155.356l3.652-5.592Z" transform="translate(-150.254 -124.251)" fill="#cfeffe"/><path d="M614.137,317.96V161h-5.666V143.235H564.653V161h-5.631V381.78H517.9V281.8H458.014V413H429.081V177.983H370.092V358.541h-6.924V251.061H352.5l-29.747-21.949v21.949h-6.507V383.8H301.8V204.04H287.194V140.976h-2V204.04H270.586V431.013H651.044V317.96ZM298.28,319.549h-24.1v-3.907h24.1Zm0-9.04h-24.1V306.6h24.1Zm0-9.053h-24.1V297.55h24.1Zm0-9.04h-24.1V288.51h24.1Zm0-9.04h-24.1v-3.907h24.1Zm0-9.053h-24.1v-3.907h24.1Zm0-9.04h-24.1v-3.907h24.1Zm0-9.041h-24.1v-3.907h24.1Zm0-9.051h-24.1v-3.908h24.1Zm0-9.041h-24.1v-3.907h24.1Zm0-9.04h-24.1v-3.907h24.1Zm0-9.053h-24.1v-3.907h24.1Zm0-9.04h-24.1v-3.907h24.1ZM382.8,264.855h-7.177V254.842H382.8Zm0-16.7h-7.177V238.127H382.8Zm0-16.715h-7.177V221.426H382.8Zm0-16.7h-7.177V204.71H382.8Zm0-16.715h-7.177V188H382.8Zm13.629,66.832H389.26V254.842h7.168Zm0-16.7H389.26V238.127h7.168Zm0-16.715H389.26V221.426h7.168Zm0-16.7H389.26V204.71h7.168Zm0-16.715H389.26V188h7.168Zm13.639,66.832H402.89V254.842h7.177Zm0-16.7H402.89V238.127h7.177Zm0-16.715H402.89V221.426h7.177Zm0-16.7H402.89V204.71h7.177Zm0-16.715H402.89V188h7.177ZM423.7,264.855h-7.168V254.842H423.7Zm0-16.7h-7.168V238.127H423.7Zm0-16.715h-7.168V221.426H423.7Zm0-16.7h-7.168V204.71H423.7ZM623.566,391.612h-6.438v-8.994h6.438Zm0-18.01h-6.438v-9h6.438Zm0-18.011h-6.438V346.6h6.438Zm0-18.01h-6.438v-8.994h6.438Zm11.946,54.03h-6.438v-8.994h6.438Zm0-18.01h-6.438v-9h6.438Zm0-18.011h-6.438V346.6h6.438Zm0-18.01h-6.438v-8.994h6.438Zm11.946,54.03h-6.446v-8.994h6.446Zm0-18.01h-6.446v-9h6.446Zm0-18.011h-6.446V346.6h6.446Zm0-18.01h-6.446v-8.994h6.446Z" transform="translate(-159.465 -121.53)" fill="#cfeffe"/><rect width="25.551" height="78.154" transform="translate(491.578 229.943)" fill="#cfeffe"/></g><line y1="0.428" x2="516.437" transform="translate(150.063 441.041)" fill="none" stroke="#389fe5" stroke-miterlimit="10" stroke-width="1.62"/><g transform="translate(145.973 158.622)"><g transform="translate(0 25.796)"><path d="M174.292,174.905l-1.84.391-.043.009a.716.716,0,0,1-.3-1.4l1.928-.422a.722.722,0,0,1,.309,1.411h0Z" transform="translate(-139.407 -173.467)" fill="#f35431"/><path d="M170.622,175.909c-1.192.4-2.366.857-3.518,1.365a.694.694,0,0,1-.565-1.267c1.187-.533,2.4-1.015,3.631-1.437a.707.707,0,1,1,.457,1.338Z" transform="translate(-140.288 -173.293)" fill="#f35431"/><path d="M165.373,178.128q-1.678.874-3.28,1.884a.671.671,0,0,1-.72-1.134q1.639-1.048,3.364-1.961a.684.684,0,1,1,.641,1.209Z" transform="translate(-141.112 -172.918)" fill="#f35431"/><path d="M160.491,181.1c-1.022.739-2.014,1.522-2.965,2.347a.649.649,0,0,1-.855-.977q1.465-1.289,3.04-2.44a.662.662,0,1,1,.782,1.067Z" transform="translate(-141.862 -172.42)" fill="#f35431"/><path d="M156.1,184.767a33.184,33.184,0,0,0-2.5,2.815.627.627,0,0,1-.986-.774,34.82,34.82,0,0,1,2.58-2.938.639.639,0,1,1,.913.9Z" transform="translate(-142.508 -171.806)" fill="#f35431"/><path d="M152.441,189.14a23.386,23.386,0,0,0-1.765,3.3.6.6,0,0,1-1.11-.476,24.528,24.528,0,0,1,1.835-3.481.616.616,0,0,1,1.043.657Z" transform="translate(-142.99 -171.071)" fill="#f35431"/><path d="M149.961,194.212a16.46,16.46,0,0,0-.567,3.657.582.582,0,0,1-1.163-.042,17.7,17.7,0,0,1,.581-3.921.594.594,0,0,1,1.15.3Z" transform="translate(-143.2 -170.214)" fill="#f35431"/><path d="M149.513,199.7a15.859,15.859,0,0,0,.957,3.574.559.559,0,0,1-1.038.415,16.952,16.952,0,0,1-1.05-3.823.571.571,0,1,1,1.13-.17Z" transform="translate(-143.176 -169.279)" fill="#f35431"/><path d="M151.377,204.9a22.215,22.215,0,0,0,2.171,3.051.536.536,0,0,1-.819.693,23.4,23.4,0,0,1-2.3-3.185.55.55,0,0,1,.944-.563Z" transform="translate(-142.854 -168.397)" fill="#f35431"/><path d="M154.887,209.276a25.923,25.923,0,0,0,2.9,2.4.513.513,0,0,1-.592.837,27.1,27.1,0,0,1-3.033-2.471.526.526,0,1,1,.721-.766Z" transform="translate(-142.262 -167.665)" fill="#f35431"/><path d="M159.413,212.624a25.792,25.792,0,0,0,3.414,1.592.488.488,0,0,1-.344.914,26.86,26.86,0,0,1-3.555-1.627.5.5,0,0,1,.484-.88Z" transform="translate(-141.502 -167.107)" fill="#f35431"/><path d="M164.645,214.72a25.017,25.017,0,0,0,3.708.66.464.464,0,0,1-.091.923,25.916,25.916,0,0,1-3.852-.657.478.478,0,0,1,.231-.928Z" transform="translate(-140.627 -166.758)" fill="#f35431"/><path d="M170.241,215.445a21.263,21.263,0,0,0,3.737-.374.441.441,0,0,1,.173.864,22.088,22.088,0,0,1-3.894.417.454.454,0,1,1-.02-.907Z" transform="translate(-139.692 -166.7)" fill="#f35431"/><path d="M175.74,214.686a9.9,9.9,0,0,0,3.116-1.923.417.417,0,0,1,.573.607,10.717,10.717,0,0,1-3.367,2.115.431.431,0,1,1-.326-.8Z" transform="translate(-138.769 -167.093)" fill="#f35431"/><path d="M179.786,211.42a9.111,9.111,0,0,0,.886-3.543.4.4,0,0,1,.789.042,9.9,9.9,0,0,1-.943,3.861.408.408,0,0,1-.735-.357Z" transform="translate(-138.074 -167.93)" fill="#f35431"/><path d="M180.616,206a7.346,7.346,0,0,0-1.709-3.187.372.372,0,1,1,.55-.5,8.106,8.106,0,0,1,1.907,3.5.385.385,0,0,1-.746.192Z" transform="translate(-138.225 -168.795)" fill="#f35431"/><path d="M177.565,201.523a14.038,14.038,0,0,0-3.439-1.452.349.349,0,0,1,.187-.672,14.705,14.705,0,0,1,3.625,1.5.362.362,0,0,1-.37.623Z" transform="translate(-139.029 -169.25)" fill="#f35431"/><path d="M172.282,199.615a24.442,24.442,0,0,0-3.781-.176.326.326,0,0,1-.021-.651,24.955,24.955,0,0,1,3.886.153.34.34,0,0,1-.081.674Z" transform="translate(-139.957 -169.35)" fill="#f35431"/><path d="M166.589,199.631a30.4,30.4,0,0,0-3.729.732.3.3,0,0,1-.155-.585,31.008,31.008,0,0,1,3.8-.773.316.316,0,1,1,.087.626Z" transform="translate(-140.882 -169.313)" fill="#f35431"/><path d="M161.01,200.982a31.284,31.284,0,0,0-3.49,1.508.279.279,0,0,1-.255-.5,31.937,31.937,0,0,1,3.544-1.561.293.293,0,0,1,.2.55Z" transform="translate(-141.755 -169.083)" fill="#f35431"/><path d="M155.818,203.482a29.1,29.1,0,0,0-3.074,2.238.256.256,0,0,1-.33-.392,29.527,29.527,0,0,1,3.115-2.3.27.27,0,1,1,.292.455Z" transform="translate(-142.534 -168.665)" fill="#f35431"/><path d="M151.287,207.064a26.835,26.835,0,0,0-2.453,2.906.233.233,0,0,1-.378-.273,27.294,27.294,0,0,1,2.476-2.975.247.247,0,1,1,.356.342Z" transform="translate(-143.17 -168.07)" fill="#f35431"/><path d="M147.727,211.61a26.81,26.81,0,0,0-1.659,3.426.21.21,0,0,1-.391-.155,27.205,27.205,0,0,1,1.661-3.494.223.223,0,0,1,.388.221Z" transform="translate(-143.617 -167.316)" fill="#f35431"/><path d="M145.382,216.872a29.92,29.92,0,0,0-.81,3.726.187.187,0,0,1-.37-.056,30.4,30.4,0,0,1,.794-3.78.2.2,0,1,1,.386.108Z" transform="translate(-143.855 -166.448)" fill="#f35431"/><path d="M144.313,222.516a27.646,27.646,0,0,0,0,3.814.164.164,0,0,1-.148.178.169.169,0,0,1-.179-.151,27.975,27.975,0,0,1-.022-3.861.177.177,0,1,1,.353.013h0Z" transform="translate(-143.903 -165.519)" fill="#f35431"/><path d="M144.665,228.214a18.533,18.533,0,0,0,1.222,3.6.139.139,0,0,1-.069.184.137.137,0,0,1-.184-.067,18.923,18.923,0,0,1-1.268-3.65.153.153,0,1,1,.3-.071Z" transform="translate(-143.829 -164.58)" fill="#f35431"/><path d="M146.9,233.455a21.4,21.4,0,0,0,2.368,2.989.115.115,0,1,1-.166.158,21.649,21.649,0,0,1-2.417-3.005.128.128,0,0,1,.036-.178.129.129,0,0,1,.179.036Z" transform="translate(-143.455 -163.718)" fill="#f35431"/><path d="M150.718,237.711a30.308,30.308,0,0,0,3.081,2.268.092.092,0,0,1,.027.126.09.09,0,0,1-.124.027,30.422,30.422,0,0,1-3.117-2.26.1.1,0,0,1,.134-.16Z" transform="translate(-142.823 -163.02)" fill="#f35431"/><path d="M155.487,240.917c1.124.608,2.278,1.161,3.451,1.668a.067.067,0,0,1,.035.087.066.066,0,0,1-.086.035q-1.772-.75-3.475-1.649a.08.08,0,0,1-.033-.108.079.079,0,0,1,.108-.034Z" transform="translate(-142.038 -162.496)" fill="#f35431"/><path d="M160.749,243.269q1.8.661,3.643,1.2a.04.04,0,0,1,.028.051.042.042,0,0,1-.051.029q-1.847-.532-3.658-1.178a.057.057,0,0,1-.034-.072.055.055,0,0,1,.071-.034Z" transform="translate(-141.176 -162.113)" fill="#f35431"/><path d="M166.267,244.95l3.751.821a.016.016,0,0,1,.014.02.018.018,0,0,1-.021.014l-3.759-.794a.031.031,0,0,1-.024-.037.032.032,0,0,1,.037-.023Z" transform="translate(-140.272 -161.839)" fill="#f35431"/><path d="M171.939,246.066l1.912.236-1.914-.223-.006-.008.008-.006Z" transform="translate(-139.344 -161.657)" fill="#f35431"/></g><g transform="translate(32.95 0)"><path d="M190.819,156.59c.149-.16-11.981,2.4-11.981,2.4l-3.461,17.624,9.376-10.728,13.686,2.187,24.45-10.561Z" transform="translate(-171.734 -150.417)" fill="#349e5e"/><path d="M222.887,157.379l-47.512,19.1,9.377-10.728Z" transform="translate(-171.734 -150.288)" fill="#39cc73"/><path d="M223.4,158.371l-51.153-7.092,7.1,8.57,44.049-1.478-38.135,8.373,11.918,15.023Z" transform="translate(-172.244 -151.28)" fill="#4dec8c"/></g></g><g transform="translate(630.112 233.794)"><line y1="18.671" x2="16.385" transform="translate(3.927 6.946)" fill="none" stroke="#2c1f23" stroke-miterlimit="10" stroke-width="1"/><path d="M564.473,224.969l1.246-3.739,1.765-5.3" transform="translate(-559.629 -215.934)" fill="none" stroke="#2c1f23" stroke-miterlimit="10" stroke-width="1"/><line y1="9.865" x2="3.288" transform="translate(0 13.702)" fill="none" stroke="#2c1f23" stroke-miterlimit="10" stroke-width="1"/><path d="M579.776,238.034l1.377-.654,6.582-3.129" transform="translate(-557.14 -212.955)" fill="none" stroke="#2c1f23" stroke-miterlimit="10" stroke-width="0.96"/><line y1="4.081" x2="8.586" transform="translate(9.059 27.452)" fill="none" stroke="#2c1f23" stroke-miterlimit="10" stroke-width="0.96"/><line x2="24.837" y2="0.428" transform="translate(11.593 37.179)" fill="none" stroke="#2c1f23" stroke-miterlimit="10" stroke-width="1"/></g><g transform="translate(242.392 193.536)"><path d="M273.751,216.7V392.91H227.21a22.886,22.886,0,0,1-.151-7.348l21.149-150.8a46.62,46.62,0,0,1,6.534-18.068Z" transform="translate(-226.833 -175.553)" opacity="0.3" style="mix-blend-mode:multiply;isolation:isolate"/><path d="M462.014,416.482c-6.32,9.455-19,9.455-24.53,9.455l-180.861-10.37c-5.531,0-17.169,2.908-20.3-1.646-3.537-5.139-3.73-16.908-2.632-24.728l21.155-150.8a46.732,46.732,0,0,1,13.238-26.563l18.629-17.483,22.548,17.863,90.347-6.855,9.621-10.016,17.183,12.5a45.914,45.914,0,0,1,18.418,28.675q.169.933.3,1.877l21.155,150.8C468.442,398.9,466.4,409.914,462.014,416.482Z" transform="translate(-225.814 -179.189)" fill="#544537"/><path d="M452.082,420.639a22.153,22.153,0,0,1-14.65,5.574H255.924a22.153,22.153,0,0,1-14.65-5.574,23.518,23.518,0,0,1-7.645-20.8l20.564-150.8a47.247,47.247,0,0,1,12.868-26.563l16.372-16.842h24.083l.321-12.978,72.339,1,5.662,11.978h24.082l16.026,14.395a23.951,23.951,0,0,1,1.867,1.832c6.421,7.169,10.038,17.557,11.348,27.179l20.563,150.8A23.514,23.514,0,0,1,452.082,420.639Z" transform="translate(-225.762 -179.464)" fill="#4dec8c"/><path d="M452.081,392.051a22.12,22.12,0,0,1-14.65,5.581h-181.5a22.1,22.1,0,0,1-14.65-5.581,23.518,23.518,0,0,1-7.65-20.8l.4-2.9a23.146,23.146,0,0,0,7.255,12.255,22.145,22.145,0,0,0,14.65,5.569h181.5a22.167,22.167,0,0,0,14.65-5.569,23.146,23.146,0,0,0,7.255-12.255l.4,2.9A23.518,23.518,0,0,1,452.081,392.051Z" transform="translate(-225.762 -150.882)" fill="#282228"/><path d="M277.675,207.471l1.615-21.186a5.386,5.386,0,0,1,5.37-4.976h9.162a5.387,5.387,0,0,1,5.374,5.019l1.442,21.143Z" transform="translate(-218.562 -181.309)" fill="#2c1f23"/><path d="M365.422,207.471l1.615-21.186a5.386,5.386,0,0,1,5.37-4.976h9.162a5.385,5.385,0,0,1,5.373,5.019l1.443,21.143Z" transform="translate(-204.288 -181.309)" fill="#2c1f23"/><path d="M377.634,205.626H296.72l-.056-12.976,80.926.08Z" transform="translate(-215.473 -179.464)" fill="#349e5e"/><circle cx="23.548" cy="23.548" r="23.548" transform="translate(100.624 104.314)" fill="#2c1f23"/><circle cx="26.237" cy="26.237" r="26.237" transform="translate(97.935 101.625)" fill="none" stroke="#2c1f23" stroke-miterlimit="10" stroke-width="0.743"/><g transform="translate(56.849 60.539)"><g transform="translate(25.299 24.393)"><g transform="translate(22.848)"><circle cx="5.104" cy="5.104" r="5.104" transform="translate(0 4.169) rotate(-24.106)" fill="#fff"/><path d="M323.754,258.849a1.648,1.648,0,1,1-2.125.955A1.647,1.647,0,0,1,323.754,258.849Z" transform="translate(-316.425 -253.646)" fill="#2c1f23"/><path d="M328.185,258.242a5.1,5.1,0,1,1-9.321,4.11,5.1,5.1,0,0,0,9.321-4.11Z" transform="translate(-316.858 -253.727)" fill="#d8d8d8"/></g><g transform="translate(8.426 12.605)"><path d="M309.025,265.266a5.1,5.1,0,1,1-4.225,5.852A5.1,5.1,0,0,1,309.025,265.266Z" transform="translate(-304.734 -265.2)" fill="#fff"/><path d="M309.093,268.195a1.647,1.647,0,1,1-1.364,1.888A1.647,1.647,0,0,1,309.093,268.195Z" transform="translate(-304.25 -264.717)" fill="#2c1f23"/><path d="M312.423,265.959a5.1,5.1,0,1,1-6.018,8.22,5.1,5.1,0,0,0,6.018-8.22Z" transform="translate(-304.462 -265.077)" fill="#d8d8d8"/></g><g transform="translate(0 30.133)"><path d="M303.076,280.3a5.1,5.1,0,1,1-5.566,4.6A5.1,5.1,0,0,1,303.076,280.3Z" transform="translate(-297.487 -280.276)" fill="#fff"/><path d="M302.264,283.257a1.647,1.647,0,1,1-1.8,1.482A1.647,1.647,0,0,1,302.264,283.257Z" transform="translate(-297.003 -279.792)" fill="#2c1f23"/><path d="M306.276,281.772a5.1,5.1,0,1,1-7.9,6.435,5.1,5.1,0,0,0,7.9-6.435Z" transform="translate(-297.342 -280.033)" fill="#d8d8d8"/></g><g transform="translate(1.467 49.526)"><path d="M304.11,296.962a5.1,5.1,0,1,1-5.355,4.839A5.1,5.1,0,0,1,304.11,296.962Z" transform="translate(-298.748 -296.955)" fill="#fff"/><path d="M303.452,299.93a1.647,1.647,0,1,1-1.728,1.561A1.648,1.648,0,0,1,303.452,299.93Z" transform="translate(-298.265 -296.472)" fill="#2c1f23"/><path d="M307.364,298.308a5.1,5.1,0,1,1-7.6,6.78,5.1,5.1,0,0,0,7.6-6.78Z" transform="translate(-298.584 -296.735)" fill="#d8d8d8"/></g><g transform="translate(12.433 65.586)"><path d="M312.995,310.777a5.1,5.1,0,1,1-4.805,5.387A5.1,5.1,0,0,1,312.995,310.777Z" transform="translate(-308.181 -310.769)" fill="#fff"/><path d="M312.707,313.744a1.647,1.647,0,1,1-1.551,1.739A1.648,1.648,0,0,1,312.707,313.744Z" transform="translate(-307.697 -310.285)" fill="#2c1f23"/><path d="M316.343,311.8a5.1,5.1,0,1,1-6.831,7.556,5.1,5.1,0,0,0,6.831-7.556Z" transform="translate(-307.964 -310.601)" fill="#d8d8d8"/></g><g transform="translate(28.403 72.454)"><circle cx="5.104" cy="5.104" r="5.104" transform="translate(0 3.885) rotate(-22.372)" fill="#fff"/><path d="M327.616,321.01a1.647,1.647,0,1,1-1.366,1.887A1.647,1.647,0,0,1,327.616,321.01Z" transform="translate(-321.214 -315.974)" fill="#2c1f23"/><path d="M330.95,318.778a5.1,5.1,0,1,1-6.027,8.212,5.1,5.1,0,0,0,6.027-8.212Z" transform="translate(-321.427 -316.334)" fill="#d8d8d8"/></g><g transform="translate(49.352 72.545)"><path d="M342.8,317.273a5.1,5.1,0,1,1-2.347,6.825A5.1,5.1,0,0,1,342.8,317.273Z" transform="translate(-339.934 -316.754)" fill="#fff"/><path d="M343.833,319.894a1.648,1.648,0,1,1-.758,2.2A1.647,1.647,0,0,1,343.833,319.894Z" transform="translate(-339.451 -316.27)" fill="#2c1f23"/><path d="M346.1,316.957a5.1,5.1,0,1,1-3.376,9.611,5.1,5.1,0,0,0,3.376-9.611Z" transform="translate(-339.481 -316.721)" fill="#d8d8d8"/></g><g transform="translate(65.414 61.58)"><path d="M359.015,307.325a5.1,5.1,0,1,1-5.263,4.939A5.106,5.106,0,0,1,359.015,307.325Z" transform="translate(-353.749 -307.323)" fill="#fff"/><circle cx="1.647" cy="1.647" r="1.647" transform="translate(3.457 3.457)" fill="#2c1f23"/><path d="M362.287,308.616a5.1,5.1,0,1,1-7.472,6.923,5.1,5.1,0,0,0,7.472-6.923Z" transform="translate(-353.575 -307.112)" fill="#d8d8d8"/></g><g transform="translate(73.84 44.052)"><path d="M366.309,292.252a5.1,5.1,0,1,1-5.309,4.89A5.1,5.1,0,0,1,366.309,292.252Z" transform="translate(-360.996 -292.247)" fill="#fff"/><path d="M365.684,295.222a1.647,1.647,0,1,1-1.714,1.578A1.648,1.648,0,0,1,365.684,295.222Z" transform="translate(-360.513 -291.764)" fill="#2c1f23"/><path d="M369.573,293.57a5.1,5.1,0,1,1-7.538,6.852,5.1,5.1,0,0,0,7.538-6.852Z" transform="translate(-360.827 -292.032)" fill="#d8d8d8"/></g><g transform="translate(72.373 24.659)"><path d="M364.049,275.63a5.1,5.1,0,1,1-4.252,5.833A5.105,5.105,0,0,1,364.049,275.63Z" transform="translate(-359.734 -275.568)" fill="#fff"/><path d="M364.1,278.561a1.648,1.648,0,1,1-1.372,1.884A1.648,1.648,0,0,1,364.1,278.561Z" transform="translate(-359.251 -275.084)" fill="#2c1f23"/><path d="M367.445,276.338a5.1,5.1,0,1,1-6.055,8.192,5.1,5.1,0,0,0,6.055-8.192Z" transform="translate(-359.465 -275.442)" fill="#d8d8d8"/></g></g><circle cx="47.605" cy="47.605" r="47.605" transform="translate(0 67.323) rotate(-45)" fill="none" stroke="#2c1f23" stroke-miterlimit="10" stroke-width="1.487"/><g transform="translate(6.139 7.441)"><path d="M380.251,272.532c0-1.181.586-1.944,1.767-1.944s1.779.763,1.779,1.944v3.987c0,1.181-.586,1.954-1.779,1.954s-1.767-.773-1.767-1.954Zm.851,4.043c0,.7.3,1.115.916,1.115s.917-.42.917-1.115v-4.086c0-.707-.287-1.128-.917-1.128s-.916.421-.916,1.128Z" transform="translate(-264.864 -234.766)" fill="#2c1f23"/><path d="M315.728,241.18a2.312,2.312,0,0,1-1.071.331V240.8a1.323,1.323,0,0,0,1.325-1.027h.6v7.731h-.851Z" transform="translate(-275.534 -239.778)" fill="#2c1f23"/><path d="M297.974,255c0,2.33-2.617,3.169-2.629,4.947v.121h2.54v.785h-3.39v-.663c0-2.5,2.617-2.982,2.617-5.158,0-.794-.265-1.215-.906-1.215s-.906.452-.906,1.138v.684h-.806v-.629c0-1.181.541-1.966,1.734-1.966S297.974,253.819,297.974,255Z" transform="translate(-278.814 -237.62)" fill="#2c1f23"/><path d="M284.487,280.7v.2a1.537,1.537,0,0,1-.938,1.591,1.534,1.534,0,0,1,.938,1.6v.6c0,1.181-.552,1.956-1.744,1.956s-1.735-.774-1.735-1.956v-.529h.807v.585c0,.7.287,1.115.906,1.115s.906-.408.906-1.192v-.6c0-.762-.321-1.125-.972-1.149h-.464v-.772h.508a.929.929,0,0,0,.928-1.061v-.352c0-.8-.277-1.2-.906-1.2s-.906.43-.906,1.127v.4h-.807V280.7c0-1.182.552-1.945,1.735-1.945S284.487,279.519,284.487,280.7Z" transform="translate(-281.008 -233.438)" fill="#2c1f23"/><path d="M286.156,310.527v1.558h-.838v-1.558h-2.5v-.784l2.4-5.389h.938v5.389h.619v.784Zm-2.539-.784h1.7v-3.778Z" transform="translate(-280.713 -229.274)" fill="#2c1f23"/><path d="M301.009,329.944a1.244,1.244,0,0,1,1.149-.641c.994,0,1.435.729,1.435,1.833v1.513c0,1.181-.563,1.954-1.744,1.954s-1.735-.773-1.735-1.954v-.519h.807v.574c0,.7.287,1.115.906,1.115s.906-.42.906-1.115v-1.5c0-.694-.287-1.115-.906-1.115a.834.834,0,0,0-.873.829v.177h-.806l.209-4.3h3.049v.773H301.13Z" transform="translate(-277.9 -225.623)" fill="#2c1f23"/><path d="M327.39,340.065v.143h-.807v-.2c0-.7-.287-1.1-.916-1.1-.651,0-.938.42-.938,1.248v1.734a1.243,1.243,0,0,1,1.248-.828c.994,0,1.436.717,1.436,1.832v1.171c0,1.181-.586,1.956-1.767,1.956s-1.778-.774-1.778-1.956v-3.943c0-1.225.552-1.988,1.778-1.988C326.838,338.131,327.39,338.882,327.39,340.065Zm-2.661,2.893v1.16c0,.7.287,1.115.916,1.115s.916-.42.916-1.115v-1.16c0-.7-.3-1.115-.916-1.115S324.729,342.262,324.729,342.957Z" transform="translate(-274.036 -223.779)" fill="#2c1f23"/><path d="M353.367,336.161h-2.629v-.773h3.5v.751l-1.988,6.979h-.86Z" transform="translate(-269.665 -224.225)" fill="#2c1f23"/><path d="M376.653,320.089v.243a1.522,1.522,0,0,1-.884,1.589,1.568,1.568,0,0,1,.884,1.635v.574a1.826,1.826,0,1,1-3.645,0v-.574a1.562,1.562,0,0,1,.9-1.635,1.511,1.511,0,0,1-.9-1.589v-.243a1.825,1.825,0,1,1,3.645,0Zm-2.794.021v.377c0,.75.364,1.082.972,1.082s.972-.333.972-1.082v-.377c0-.794-.365-1.159-.972-1.159S373.859,319.316,373.859,320.11Zm0,3.347v.651c0,.8.353,1.171.972,1.171s.96-.376.972-1.171v-.651c0-.752-.331-1.116-.972-1.116S373.859,322.705,373.859,323.458Z" transform="translate(-266.043 -227.025)" fill="#2c1f23"/><path d="M386.846,297.013v3.943c0,1.225-.552,2-1.789,2-1.181,0-1.745-.762-1.745-1.944v-.143h.806v.2c0,.7.3,1.1.917,1.1.663,0,.95-.42.95-1.237V299.2a1.237,1.237,0,0,1-1.248.817c-.994,0-1.436-.707-1.436-1.822v-1.181c0-1.181.574-1.944,1.767-1.944S386.846,295.832,386.846,297.013Zm-2.7-.044v1.159c0,.7.3,1.115.917,1.115s.916-.419.916-1.115v-1.159c0-.707-.287-1.116-.916-1.116S384.151,296.262,384.151,296.969Z" transform="translate(-264.368 -230.784)" fill="#2c1f23"/></g></g></g><g transform="translate(324.672 106.144)"><g transform="translate(0)"><path d="M302.192,209.719l1.657,9.411s10.029,3.688,12.3,3.718,12.487,1.459,12.487,1.459-1.413,7.307-.487,11.787,8.507,38.565,8.507,38.565l1.628,1.032v3.5a6.139,6.139,0,0,0-1.628,2.116,19.894,19.894,0,0,0-.43,4.808s2.1.314,4.936.7c.759.1,1.6-1.53,2.433-1.42,5.732.755,12.7,3.3,12.7,2.7,0-1.017-1.4-2.7-1.4-2.7l-8.307-1.425-1.952-59.662s8.162.664,8.488,1.874-.281,7.65-.249,10.57c.029,2.587,3.419,34.792,3.419,34.792a7.323,7.323,0,0,1,1.309.434c-.077.31.6,1.085.258,2.313-.462,1.684-1.917,3.967-1.567,4.781.607,1.409,4.026,1.566,4.026,1.566l2.4-11.471.994-24.568,1.371-15.468-2.617-12.563-19.489-4.408-39.728-2.643" transform="translate(-294.883 -105.606)" fill="#656565" opacity="0.5" style="mix-blend-mode:multiply;isolation:isolate"/><g transform="translate(3.164 92.442)"><g transform="translate(60.739 71.118)"><path d="M307.458,262.386a41.217,41.217,0,0,1-.043,5.176c-.219,1.364-4.6,1.091-5.045.336s-.162-7.078-.162-7.078" transform="translate(-301.135 -260.82)" fill="#feaf84"/><path d="M291.858,268.478c-.066,1.434.043,4.134.043,4.134l4.512.912.541-.781a7.83,7.83,0,0,0,2.682,1.334,17.509,17.509,0,0,0,4.233.25c3.686-.385,6.191-1.632,6.3-2.178.446-2.279-10.345-3.978-10.959-5.423-.446-1.049-.216-1.3-.821-1.135a1.485,1.485,0,0,0-.928.707,2.667,2.667,0,0,1-2.786,1.312,3.19,3.19,0,0,1-1.725-.9A1.841,1.841,0,0,0,291.858,268.478Z" transform="translate(-291.836 -260.051)" fill="#3e3e3e"/></g><g transform="translate(27.054 0)"><path d="M298,220.864c6.725-.117,24.521,2.65,31.306,3.25-.351,2.809-1.867,6.638-1.928,10.5-.2,12.757,1.544,28.781,3,39.034,0,0,2.692,2.813,6.592-.09,3.036-17.349,7.371-52.121,5.759-59.117-2.051-8.906-29.22-15.941-46.035-14.633" transform="translate(-296.692 -199.652)" fill="#656565"/></g><path d="M303.371,199.809c11.877-.924,28.911,2.317,38.618,7.439a24.147,24.147,0,0,0-5.774,3.591,9.138,9.138,0,0,0-3.292,6.75,22.788,22.788,0,0,0,.8,6.291c-7.86-.877-22.963-3.123-29.043-3.017Z" transform="translate(-276.317 -199.652)" fill="#5275a0" opacity="0.35" style="mix-blend-mode:multiply;isolation:isolate"/><g transform="translate(43.725 76.242)"><path d="M321.966,266.988a41.368,41.368,0,0,1-.236,5.172c-.27,1.354-4.636.919-5.054.146s.1-7.079.1-7.079" transform="translate(-315.301 -265.227)" fill="#feaf84"/><path d="M306.627,272.812c-.12,1.43-.112,4.133-.112,4.133l4.476,1.079.57-.76a7.816,7.816,0,0,0,2.63,1.432,17.521,17.521,0,0,0,4.222.408c3.7-.248,6.248-1.4,6.375-1.942.53-2.26-10.191-4.36-10.75-5.827-.407-1.065-.167-1.307-.778-1.164a1.483,1.483,0,0,0-.953.671,2.667,2.667,0,0,1-2.833,1.206,3.191,3.191,0,0,1-1.689-.967A1.843,1.843,0,0,0,306.627,272.812Z" transform="translate(-306.516 -264.429)" fill="#3e3e3e"/></g><path d="M315.347,200.553c-1.759,4.094-2.915,11.494-1.15,14.662,1.549,2.779,2.282,4.5,4.923,5.373,11.278,3.739,21.072,3.009,33.8,2.232-5.255,14.2,2.931,42.938,4.118,55.834,4.772,2.117,7.47-.136,7.47-.136-.542-26.248,5.309-62.913,1.767-69.186-2.152-3.812-27.844-8.847-28.354-8.779" transform="translate(-313.318 -199.505)" fill="#656565"/></g><g transform="translate(0)"><path d="M266.89,171.252l3.086-.18a3.468,3.468,0,0,1,1.471.291,17.292,17.292,0,0,0,2.6.891c2.228.591,4.384-.167,5.827-.415s.244-1.588-1.889-1.716-.979.3-2.011-.335.964-1.575,2.573-2.166a26,26,0,0,0,2.964-1.366c1.568-.731,2.942-1.2,3.852-1.721.634-.36,1.181-.985.443-1.163-.765-.185-5.082.975-6.046,1.036s-1.5-1.364-4.067-1.385-5.13,2.721-6.317,3.383-5.777.3-5.777.3" transform="translate(-171.087 -113.169)" fill="#feaf84"/><path d="M277.246,148.258s6.106,0,9.888,2.652c2.134,1.494,20.587,13.563,22.881,14.795s30.64,2.871,30.64,2.871a5.072,5.072,0,0,1,1.474,3.278,12.639,12.639,0,0,1-.624,3.768s-28.023,2.6-33.92,1.388-29.521-11.3-29.521-11.3" transform="translate(-242.918 -115.57)" fill="#349e5e"/><path d="M325.982,209.613c3.042,7.4,19.3,4.722,27.96,5.038,7.753.283,9.673-2.385,9.673-2.385-.293-11.076-2.108-19.294-.369-27.365,2.958-13.726,4.65-30.534,1.891-33.636-5.41-4.136-19.8-7.159-31.086-3.646-8.479,2.631-11.159,5.117-10.645,11.491C323.576,161.228,329.282,200.536,325.982,209.613Z" transform="translate(-320.921 -115.925)" fill="#4dec8c"/><g transform="translate(17.251 92.344)"><path d="M312.481,202.78l40.994-3.212-23.788,10.81Z" transform="translate(-312.481 -199.568)" fill="#8fcaf2"/><path d="M350.116,210.888l-17.129-7.119-.233-1.439,17.423,7.14Z" transform="translate(-332.754 -199.118)" fill="#b1dafc"/></g><path d="M323.419,197.027l3.464,1.6a5.765,5.765,0,0,1,6.575-.258c3.443,2.246-.015,9.512-2.488,8.98s-9.906-5.277-9.906-5.277Z" transform="translate(-286.639 -107.637)" fill="#feaf84"/><path d="M365.389,211.722s1.872-.585,2.545-3.623a10.431,10.431,0,0,0-.28-3.444s-9.664-5.749-16.51-10.965a51.032,51.032,0,0,0-10.059-6.176l1.723-17.648c.3-3.124,1.088-7.186.663-10.3-.572-4.182-2.158-10.922-7.231-10.078-9.057,1.506-6.912,20.633-6.59,27.618.22,4.759-.2,12.885,2.757,16.931C336.866,200.146,365.389,211.722,365.389,211.722Z" transform="translate(-329.2 -115.382)" fill="#349e5e"/><g transform="translate(34.612 66.509)"><path d="M297.482,214.952l37.658-6.107a2.688,2.688,0,0,0,2.256-2.538l1.156-26.605a2.255,2.255,0,0,0-2.615-2.324l-35.27,5.72a2.256,2.256,0,0,0-1.893,2.129Z" transform="translate(-297.482 -177.347)" fill="#b1dafc"/></g><g transform="translate(12.651)"><path d="M351.089,140.495c-.91.337.467,6.17-1.571,6.718a19.269,19.269,0,0,1-5.341.394c-.007.149.445,3.285.445,3.285l-.464,1.963h-3.583l-4.926-1.341s-.16-6.311-.364-7.054c-.128-.466-2.039-2.207-3.382-5.381a14.961,14.961,0,0,1-1.407-4.923c-.006-3.359.12-6.867,2.323-8.6s16.163-7.933,16.546,2.324c0,0,1.742,7.119,2.429,8.932.228.6,1.173,2.531.979,3.13C352.593,140.5,351.528,140.333,351.089,140.495Z" transform="translate(-328.15 -119.822)" fill="#feaf84"/><path d="M349.7,146.959a11.614,11.614,0,0,0,.594,2.164l-.778,1.589-3.583.191L341,149.562s-.16-6.311-.364-7.054c-.128-.466-2.039-2.207-3.382-5.381l.18-1.981s4.324-1.048,4.483-1.031.2,8.529.334,10.914c1.765,1.4,3.825,3.007,4.607,3.011A4.7,4.7,0,0,0,349.7,146.959Z" transform="translate(-333.505 -117.871)" fill="#f29d77"/><path d="M338.75,136.388s3.382,4.343,3.271-2.587a.5.5,0,0,1,.474-.437c.914-.113,3.028-.828,2.9-5.012a.627.627,0,0,1,.665-.624,41.781,41.781,0,0,1,4.489.306,5.545,5.545,0,0,1,.822.22,13.96,13.96,0,0,1,.626,2.068c.088.285.4,2.087.4,2.087s1.165-.359,1.171-1.1a20.071,20.071,0,0,1-.162-2.757c.153-.371,1.292-.638,1.48-1.5.424-1.947,1.258-9.542-5.375-5.953-.867.47-4.148.584-6.045.392-2.649-.269-14.431.491-13.02,11.534.838,6.554,1.892,8.718,3.636,10.007.3.219,1.74,1.621,1.994,1.754a2.029,2.029,0,0,0,1.428.215,5,5,0,0,0,.391-1.792C337.957,140.983,337.787,137.162,338.75,136.388Z" transform="translate(-330.334 -120.144)"/><path d="M347.334,134.186s-.217-2.258-2.06-1.943c-2.474.422-2.466,6.492,2.712,6.582A18.974,18.974,0,0,0,347.334,134.186Z" transform="translate(-338.653 -118.18)" fill="#feaf84"/></g><path d="M340.166,143.873a18.536,18.536,0,0,0-2.239,3.112,9.561,9.561,0,0,0,2.47,1.915c1.315.684,7.411,4.012,7.411,4.012l1.528-3.788S343.1,145.617,340.166,143.873Z" transform="translate(-320.676 -116.284)" fill="#fff"/><path d="M335.305,149.081a8.592,8.592,0,0,1,2.865,3.06,14.448,14.448,0,0,0-.253-5.774,10.765,10.765,0,0,0-2.6-2.227S335.761,147.592,335.305,149.081Z" transform="translate(-306.645 -116.24)" fill="#fff"/></g></g><path d="M338.374,132.517a19.257,19.257,0,0,1,.2-4.8,8.177,8.177,0,0,1,3.045-5.156,7.6,7.6,0,0,1,5.759-1.174,8.2,8.2,0,0,0-5.437,1.6,7.862,7.862,0,0,0-2.687,4.873,19.363,19.363,0,0,0-.3,4.6c.1-.006.2-.029.3-.029a4.816,4.816,0,0,1,2.862,8.7,8.495,8.495,0,0,0,7.142,3.147,1.154,1.154,0,0,1,1.055-.579.927.927,0,1,1,0,1.806,1.176,1.176,0,0,1-1.021-.52c-.076,0-.158.009-.233.009a9.033,9.033,0,0,1-7.534-3.5,4.78,4.78,0,0,1-2.272.592,4.824,4.824,0,0,1-.88-9.569Z" transform="translate(-318.721 -119.965)" fill="#e72d27"/></g><g transform="translate(483.728 225.964)"><path d="M435.63,327.2c-1.652,5.737,1.242,12.039,5.753,15.948s10.37,5.86,16.142,7.382c4.271,1.125,8.761,2.071,13.072,1.112s8.385-4.325,8.8-8.722c.655-7-8.453-11.614-15.084-9.3s-10.81,8.771-14.072,14.995c-3.145,6-5.955,12.327-6.724,19.06s.751,13.989,5.355,18.962c4.3,4.645,10.738,6.77,17.039,7.383a45.374,45.374,0,0,0,20.7-2.84c6.719-2.6,12.754-6.791,19.548-9.2s15.053-2.683,20.535,1.993" transform="translate(-434.281 -190.006)" fill="none" stroke="#282228" stroke-miterlimit="10" stroke-width="3"/><path d="M545.918,414.831c-12.178,6.221-29.745,1.9-37.695-14h0c-26.645-48.8-70.379-137.765-70.379-137.765-7.885-18.424-1.339-32.568,10.751-38.745h0l4.882-2.494h0l13.9-6.656c.959,11.52,2.907,13.032,5.956,19l11.221,4.107c3.05,5.97,11.529,15.64,5.56,18.69l-10.644,5.438a4.687,4.687,0,0,0-2.042,6.306l49.417,96.733a4.688,4.688,0,0,0,6.307,2.042l9.372-4.631c5.969-3.05,10.843,10.808,13.893,16.777l14.486,8.8c-3.958,4.788.422,13.19-5.548,16.24l-14.557,7.66h0l-4.882,2.494Z" transform="translate(-434.404 -208.228)" fill="#282228"/><path d="M562.332,383.907l-10.777-21.09a12.144,12.144,0,0,0-16.334-5.3l-10.636,5.441a4.689,4.689,0,0,1-6.311-2.044l-49.422-96.731a4.7,4.7,0,0,1,2.044-6.311l1.223-.621a4.613,4.613,0,0,0-.208,4.612l49.42,96.742a4.681,4.681,0,0,0,6.3,2.043l8.684-4.281c5.964-3.058,6.041,3.017,9.086,8.98l11.428,7.367" transform="translate(-428.883 -201.383)" fill="#349e5e"/><path d="M16.386,0c9.05,0,16.386,10.672,16.386,23.836S25.436,47.673,16.386,47.673,0,37,0,23.836,7.336,0,16.386,0Z" transform="translate(93.127 162.985) rotate(-29.208)" fill="#4dec8c"/><path d="M550.114,384.326c-.14.07-.267.151-.407.209,7.6-4.581,8.673-17.277,2.349-28.6-6.325-11.3-17.638-17.033-25.532-13.022.1-.07.221-.139.326-.2,7.895-4.418,19.51,1.314,25.939,12.813S558.008,379.908,550.114,384.326Z" transform="translate(-419.419 -187.724)" fill="#282228"/><path d="M15.156,0c8.371,0,15.156,10.672,15.156,23.836S23.527,47.673,15.156,47.673,0,37,0,23.836,6.786,0,15.156,0Z" transform="translate(18.83 14.792) rotate(-29.208)" fill="#4dec8c"/><path d="M485.271,257.358a3.512,3.512,0,0,1-.36.186c7.15-4.186,7.79-16.7,1.43-28.09-6.348-11.348-17.266-17.335-24.567-13.568.07-.047.151-.093.233-.14,7.313-4.093,18.44,1.918,24.869,13.406S492.584,253.265,485.271,257.358Z" transform="translate(-429.952 -208.345)" fill="#282228"/></g><g transform="translate(131.184 109.1)"><path d="M324.47,117.477h-2.084v-2.084a.609.609,0,0,0-1.219,0v2.084h-2.082a.609.609,0,0,0,0,1.218h2.082v2.082a.609.609,0,0,0,1.219,0V118.7h2.084a.609.609,0,0,0,0-1.218Z" transform="translate(-101.084 -107.694)" fill="#9ddbf4"/><path d="M315.222,258.8h-2.083v-2.082a.609.609,0,0,0-1.218,0V258.8h-2.082a.609.609,0,1,0,0,1.218h2.082v2.082a.609.609,0,0,0,1.218,0v-2.082h2.083a.609.609,0,0,0,0-1.218Z" transform="translate(-101.002 -84.704)" fill="#9ddbf4"/><path d="M612.577,197.174H610.5V195.09a.609.609,0,1,0-1.218,0v2.083h-2.082a.609.609,0,1,0,0,1.217h2.082v2.084a.609.609,0,1,0,1.218,0v-2.084h2.082a.609.609,0,1,0,0-1.217Z" transform="translate(-107.196 -94.73)" fill="#9ddbf4"/><path d="M144.431,139.766h-2.082v-2.084a.609.609,0,0,0-1.218,0v2.084h-2.083a.609.609,0,0,0,0,1.217h2.083v2.083a.609.609,0,1,0,1.218,0v-2.083h2.082a.609.609,0,1,0,0-1.217Z" transform="translate(-92.748 -104.068)" fill="#9ddbf4"/><path d="M524.675,173.712h-2.082v-2.084a.609.609,0,0,0-1.219,0v2.084h-2.082a.609.609,0,1,0,0,1.218h2.082v2.082a.609.609,0,0,0,1.219,0V174.93h2.082a.609.609,0,1,0,0-1.218Z" transform="translate(-102.858 -98.546)" fill="#9ddbf4"/><path d="M392.849,156.124a2.154,2.154,0,1,1-2.154-2.154A2.155,2.155,0,0,1,392.849,156.124Z" transform="translate(-101.52 -101.32)" fill="none" stroke="#9ddbf4" stroke-miterlimit="10" stroke-width="1"/><path d="M555.472,110.84a2.154,2.154,0,1,1-2.154-2.154A2.154,2.154,0,0,1,555.472,110.84Z" transform="translate(-116.211 -108.686)" fill="none" stroke="#9ddbf4" stroke-miterlimit="10" stroke-width="1"/><path d="M633.615,270.833a2.154,2.154,0,1,1-2.154-2.154A2.155,2.155,0,0,1,633.615,270.833Z" transform="translate(-103.5 -82.66)" fill="none" stroke="#9ddbf4" stroke-miterlimit="10" stroke-width="1"/><path d="M253.228,179.716a2.154,2.154,0,1,1-2.154-2.154A2.154,2.154,0,0,1,253.228,179.716Z" transform="translate(-100.372 -97.482)" fill="none" stroke="#9ddbf4" stroke-miterlimit="10" stroke-width="1"/><path d="M103.45,221.632a2.154,2.154,0,1,1-2.154-2.156A2.155,2.155,0,0,1,103.45,221.632Z" transform="translate(-99.141 -90.664)" fill="none" stroke="#9ddbf4" stroke-miterlimit="10" stroke-width="1"/></g></g></svg>