<svg xmlns="http://www.w3.org/2000/svg" width="373.314" height="291.11" viewBox="0 0 373.314 291.11"><g transform="translate(-2395.027 -100.556)"><g transform="translate(2395.027 118.603)"><ellipse cx="102.755" cy="5.749" rx="102.755" ry="5.749" transform="translate(122.025 258.259)" fill="#d0d2d3"/><g transform="translate(0)"><g transform="translate(0 112.452)"><path d="M2407.56,904.318c-7.323-2.822-12.031-8.283-12.492-14.639h0c-.448-5.989,2.872-11.954,9.023-16.388h0c6.177-4.471,15.285-7.659,27.45-8.578h0a124.759,124.759,0,0,1,31.8,2.183h0c4.351.809,8.275,1.743,12.034,2.684h0a51.489,51.489,0,0,0,7.8-13.168,36.747,36.747,0,0,0,2.589-16.505h0a38.658,38.658,0,0,0-2.154-10.051h0c-1.7-5.07-8.306-12.053-14.851-19.945h0c-6.5-7.966-13.056-17.231-13.94-28.5h0c-.847-11.01,4.165-23.14,18.429-36.013h0l4.34,4.781c-13.4,12.219-16.938,22.147-16.325,30.753h0c.629,8.886,6.161,17.2,12.492,24.886h0c6.272,7.745,13.213,14.494,15.939,21.879h0a44.929,44.929,0,0,1,2.51,11.727h0c.863,11.856-3.242,22.633-10.008,31.878h0c10.5,2.6,20.935,4.661,37.412,3.438h0c3.8-.283,7.923-.747,12.452-1.42h0l.954,6.386c-4.668.7-8.946,1.181-12.923,1.479h0c-18.912,1.417-30.731-1.39-42.411-4.357h0a82.738,82.738,0,0,1-9.739,9.1h0c-14.543,11.551-32.543,18.854-46.745,19.951h0a31.347,31.347,0,0,1-13.639-1.561Zm56.356-23.441a78.312,78.312,0,0,0,6.56-5.854h0c-2.678-.64-5.421-1.248-8.312-1.777h0a118.48,118.48,0,0,0-30.142-2.091h0c-11.282.839-19.265,3.815-24.142,7.367h0c-4.908,3.585-6.617,7.493-6.372,10.678h0c.261,3.342,2.647,6.8,8.414,9.107h0a25.2,25.2,0,0,0,10.8,1.135h0c12.431-.892,29.735-7.785,43.2-18.565Z" transform="translate(-2395.027 -745.399)" fill="#349e5e"/></g><g transform="translate(1.351 112.996)"><path d="M2412.594,902.692c-6.7-2.619-10.479-7.278-10.863-12.422h0c-.664-9.783,10.518-20.415,34.092-22.2h0a122.266,122.266,0,0,1,31.137,2.14h0c4.847.9,9.215,1.977,13.459,3.053h0c7.982-9.439,12.928-20.612,12.014-32.769h0a41.245,41.245,0,0,0-2.3-10.724h0c-4.194-12.1-27.046-27.2-28.645-47.774h0c-.76-10.045,3.665-21.292,17.581-33.91h0l.865.956c-13.737,12.486-17.87,23.29-17.16,32.859h0c1.413,19.739,23.916,34.626,28.573,47.436h0a42.541,42.541,0,0,1,2.369,11.062h0c.881,12.391-4.019,23.687-11.908,33.218h0c11.936,3.032,23.232,5.885,42.081,4.474h0c3.868-.289,8.06-.756,12.641-1.442h0l.188,1.279c-4.608.685-8.827,1.162-12.732,1.457h0c-19.36,1.448-30.939-1.58-43.105-4.673h0c-14.656,16.957-38.719,28.062-55.788,29.372h0a28.932,28.932,0,0,1-12.5-1.393Zm-2.14-25.489c-5.407,3.929-7.757,8.658-7.436,12.972h0c.343,4.541,3.66,8.8,10.046,11.315h0a27.569,27.569,0,0,0,11.937,1.3h0c13.137-.972,30.721-8.025,44.612-19.118h0a78.065,78.065,0,0,0,9.861-9.316h0c-4.047-1.024-8.2-2.032-12.748-2.872h0a120.687,120.687,0,0,0-30.808-2.125h0a.04.04,0,0,1-.018,0h0c-11.622.867-20.05,3.926-25.446,7.84Z" transform="translate(-2401.704 -748.087)" fill="#f4f4f4"/></g><path d="M3025.8,1358.009a10.332,10.332,0,0,1-9.536,11.074l-31.563,2.362a10.335,10.335,0,0,1-11.074-9.535l-.578-7.73a10.334,10.334,0,0,1,9.534-11.078l31.563-2.361a10.337,10.337,0,0,1,11.076,9.537Z" transform="translate(-2856.051 -1107.786)" fill="#dedbdb"/><path d="M3832.1,1297.737a10.333,10.333,0,0,1-9.534,11.075l-31.56,2.358a10.337,10.337,0,0,1-11.077-9.534l-.577-7.73a10.335,10.335,0,0,1,9.535-11.078l31.558-2.358a10.332,10.332,0,0,1,11.076,9.538Z" transform="translate(-3499.182 -1059.711)" fill="#dedbdb"/><path d="M3013.563,191.492c-46.275-4.6-90.8-.461-131.687,15.678l0,0c-.067.021-.132.052-.2.077s-.134.055-.2.08l0,0c-40.894,16.114-76.522,43.58-107.2,78.523-5.592,31.6,10.394,53.646,11.47,54.612s49.1-56.392,49.1-56.392-7.031-9.033.852-14.574c10.323-2.364,46.959-16.778,62.13-22.762s50.524-19.96,59.682-25.274c9.548-1.331,10.57,10.067,10.57,10.067s74.25,9.141,74.375,7.7S3039.215,210.762,3013.563,191.492Z" transform="translate(-2696.583 -189.731)" fill="#349e5e"/><path d="M3125.5,249.941s-36.994,1.574-99.176,27.155-68.872,45.652-68.872,45.652a33.333,33.333,0,0,1,19.2-.523,7.933,7.933,0,0,1,3.731-7.066c10.323-2.364,46.959-16.778,62.131-22.761s50.523-19.96,59.681-25.273a7.937,7.937,0,0,1,7.465,2.524C3115.859,256.1,3125.5,249.941,3125.5,249.941Z" transform="translate(-2843.636 -237.756)" fill="#4dec8c"/><g transform="translate(78.426 89.675)"><path d="M2847.773,646.045c-25.115-14.654-49.133-17.8-59.808-5.912s-4.986,35.435,12.268,58.833Z" transform="translate(-2782.561 -632.848)" fill="#349e5e"/></g><g transform="translate(268.833 8.634)"><path d="M3723.433,277.606c8.351-27.847,23.761-46.541,39.673-45.139s27.827,22.488,31.193,51.371Z" transform="translate(-3723.433 -232.393)" fill="#349e5e"/></g><path d="M2842.666,720.935c4.7,4,9.24,4.784,14.635.852,12.3-8.959,38.3-39.651,42.91-48.791,3-5.956,1.779-11.638-2.927-15.641l-2.655-2.269c-4.706-4-9.192-5.814-14.68.209l-42.341,49.723c-2.962,3.941-2.47,9.516,2.4,13.648Z" transform="translate(-2746.575 -557.975)" fill="#4dec8c"/><path d="M2894,762.166a28.721,28.721,0,0,1,3.291-5.965c6.314-9.125,35.226-43.15,47.117-54.6.878-.849,1.692-1.562,2.452-2.177,1.92,3.471,1.948,7.6-.2,11.871-4.609,9.141-30.613,39.832-42.909,48.792C2900.222,762.658,2897.068,763.205,2894,762.166Z" transform="translate(-2793.018 -596.277)" fill="#349e5e"/><path d="M3791.833,411.849c-.709,6.134-3.493,9.8-10.113,10.611-15.1,1.848-55.059-2.838-64.663-6.368-6.266-2.309-9.248-7.3-8.542-13.424l.4-3.475c.7-6.143,2.743-10.524,10.866-9.869l64.885,7.441c4.855.852,8.3,5.267,7.562,11.61Z" transform="translate(-3442.62 -348.881)" fill="#4dec8c"/><path d="M3791.8,489.078a28.487,28.487,0,0,0-6.472-2.118c-10.847-2.355-55.2-7.49-71.7-7.742-1.219-.025-2.3.013-3.279.083.968,3.846,3.76,6.881,8.254,8.538,9.6,3.529,49.559,8.215,64.662,6.368C3787.58,493.677,3790.261,491.928,3791.8,489.078Z" transform="translate(-3444.16 -420.627)" fill="#349e5e"/><path d="M2994.977,906.047c-23.638,1.768-43.56,24.028-57.036,49.17.569,8.437,210.8,6.967,223.758-17.59-7.075-9.8-43.071-40.825-61.061-39.478C3092.4,898.763,3021.392,904.07,2994.977,906.047Z" transform="translate(-2828.07 -754.75)" fill="#349e5e"/><path d="M3053.189,601.935,2947.6,608.912l2.828-5.946.741-.366c44.341-21.762,39.732-80.839,36.366-123.973l-.506-6.586c-.092-1.22-.335-4.47,12.7-5.445,10.436-.781,11.833,1.685,11.976,3.6.252,3.382,3.621,27.29,4.674,34.725l67.527-5.046c-.065-7.511-.291-31.654-.543-35.035-.145-1.916.873-4.563,11.305-5.341,13.043-.977,13.286,2.275,13.376,3.493l.478,6.595c3.084,43.153,7.308,102.254,54.392,117.181l.789.252,3.68,5.461-105.452,8.8,0,.04-2.386.194-2.006.135-4.352.357Z" transform="translate(-2835.776 -404.761)" fill="#e6e1e1"/><path d="M3079.173,620.14l-105.711-3.41c45.04-24.124,40.53-87.867,37.271-129.608-.171-2.165-.335-4.283-.489-6.34.9-.6,4.5-1.55,9.478-1.922,5.045-.378,7.6.123,8.228.48.447,5.027,4.887,36.232,5.077,37.578l.171,1.2,1.207-.092,34.565-2.583,4.08-.3,34.566-2.586,1.206-.089-.01-1.208c-.012-1.359-.26-32.868-.566-37.916.563-.443,3.012-1.319,8.065-1.7,4.978-.372,8.675.031,9.656.492.154,2.057.306,4.175.462,6.34,2.983,41.766,8.847,105.411,56.976,122.568Z" transform="translate(-2856.403 -414.471)" fill="#4dec8c"/><path d="M3160.975,1092.493c-.029-.378-.2-.04-.321.172-.938,1.562-5.485,2.832-7.424,2.976l-87.23,6.522-33.775,2.527-87.235,6.521c-1.991.148-6.589.372-7.62-1.534-.011-.273-.509-.265-.482.1.083,1.107,1.708,24.991,2.532,36.017.524,7.007,9.468,6.641,16.339,6.128l79.553-5.949.009.129c3.739-.36,6.689-.628,8.526-.766l16.7-1.248c1.837-.138,4.79-.31,8.547-.51l-.009-.129,79.547-5.947c6.869-.514,15.77-1.482,15.246-8.489C3163.054,1117.985,3161.074,1093.824,3160.975,1092.493Z" transform="translate(-2827.229 -909.662)" fill="#4dec8c"/><path d="M3162.873,1154.209c-.041-.283-.136-.258-.321.043-1.116,1.8-5.5,3.409-7.4,3.551l-209.578,15.67c-1.92.142-6.462-.687-7.776-2.361-.2-.255-.415-.329-.4-.046.072.959,1.862,24.889,2.693,36.016.529,7.075,9.314,6.726,16.231,6.208l194.112-14.511c6.913-.517,15.657-1.482,15.128-8.553C3164.734,1179.1,3162.911,1154.7,3162.873,1154.209Z" transform="translate(-2827.639 -958.867)" fill="#349e5e"/><g transform="translate(157.994 82.544)"><path d="M3282.517,656.094c-16.017,19.7-51.143,27.442-78.45,17.3s-36.465-34.335-20.449-54.028,51.144-27.438,78.453-17.295S3298.534,636.4,3282.517,656.094Z" transform="translate(-3175.733 -597.61)" fill="#349e5e"/><path d="M3556.678,642.12l-.034,0-1.766.815-.331-.726,2.225-1.024,1.207-.089.544,7.29-1.368.1Z" transform="translate(-3477.885 -632.298)" fill="#f4f5f5"/><path d="M3442.791,629.891l-.044-.6,1.061-.839c2.538-1.971,3.676-3,3.606-4.108-.055-.735-.621-1.378-2.182-1.264a4.544,4.544,0,0,0-2.178.781l-.5-.664a5.958,5.958,0,0,1,2.908-.962c2.25-.169,3.284.839,3.362,1.885.1,1.343-1.221,2.534-3.315,4.181l-.8.6,0,.024,4.706-.35.062.821Z" transform="translate(-3388.556 -617.234)" fill="#f4f5f5"/><path d="M3333.807,652.542a6.317,6.317,0,0,0,2.353.286c1.823-.135,2.326-.984,2.266-1.59-.095-1.021-1.447-1.362-2.818-1.258l-.79.058-.055-.735.791-.058c1.032-.08,2.308-.551,2.243-1.415-.043-.584-.613-1.058-1.919-.959a5.092,5.092,0,0,0-2.058.633l-.421-.689a6.624,6.624,0,0,1,2.7-.766c2.06-.154,3.059.63,3.125,1.519.057.75-.541,1.442-1.807,1.86v.025c1.3.077,2.4.676,2.474,1.694.088,1.172-1.141,2.284-3.649,2.472a7.2,7.2,0,0,1-2.761-.286Z" transform="translate(-3301.492 -636.233)" fill="#f4f5f5"/><path d="M3251.3,712.334l-.149-1.983-4.866.363-.047-.652,4.323-5.006,1.529-.117.339,4.535,1.469-.108.057.775-1.468.111.149,1.983Zm-.206-2.758-.183-2.435c-.028-.381-.043-.763-.04-1.15l-.045,0c-.289.452-.526.784-.788,1.144l-2.376,2.669v.025Z" transform="translate(-3231.968 -683.219)" fill="#f4f5f5"/><path d="M3229.5,783.8l-4,.3-.263,1.9a6.952,6.952,0,0,1,.849-.111,6.122,6.122,0,0,1,2.284.221,2.091,2.091,0,0,1,1.637,1.765c.107,1.424-1.439,2.61-3.711,2.779a6.89,6.89,0,0,1-2.643-.252l.3-.781a6.223,6.223,0,0,0,2.268.243c1.338-.1,2.433-.79,2.36-1.771-.086-.941-1.039-1.55-3.132-1.393-.593.046-1.059.126-1.443.188l.419-3.548,5.007-.375Z" transform="translate(-3213.96 -745.459)" fill="#f4f5f5"/><path d="M3254.093,860.594a7.88,7.88,0,0,0-1.062.12c-2.2.424-3.292,1.645-3.445,2.866l.051,0a3.737,3.737,0,0,1,2.463-1.033c1.855-.139,3.228.695,3.334,2.121.1,1.337-1.11,2.666-3.287,2.828-2.238.169-3.794-.934-3.936-2.832a3.951,3.951,0,0,1,1.525-3.416,6.926,6.926,0,0,1,3.27-1.325,8.8,8.8,0,0,1,1.027-.135Zm-1.986,6.134a1.81,1.81,0,0,0,1.9-1.9c-.078-1.045-.978-1.608-2.283-1.509a2.566,2.566,0,0,0-1.961,1.045.659.659,0,0,0-.127.452,2.073,2.073,0,0,0,2.456,1.909Z" transform="translate(-3233.534 -806.729)" fill="#f4f5f5"/><path d="M3337.769,914.162l.049.652-4.059,6.982-1.466.111,4.056-6.795,0-.019-5.121.381-.061-.821Z" transform="translate(-3299.71 -850.1)" fill="#f4f5f5"/><path d="M3444.175,933.936c-1.187-.295-1.735-.885-1.781-1.512-.086-1.156,1.257-2.045,3.091-2.183,2.033-.151,3.11.661,3.178,1.568.046.615-.338,1.31-1.594,1.836v.034c1.333.261,2.188.842,2.254,1.725.1,1.273-1.4,2.235-3.405,2.383-2.189.166-3.577-.643-3.657-1.706-.069-.916.672-1.633,1.933-2.109Zm3.722,1.679c-.067-.892-.985-1.248-2.423-1.42-1.2.338-1.822.944-1.769,1.642,0,.744.857,1.334,2.194,1.236C3447.173,936.974,3447.953,936.353,3447.9,935.615Zm-4.172-3.358c.056.726.875,1.061,2.1,1.2.887-.283,1.546-.781,1.5-1.442-.044-.584-.589-1.153-1.86-1.058C3444.283,931.04,3443.678,931.63,3443.725,932.257Z" transform="translate(-3388.32 -862.911)" fill="#f4f5f5"/><path d="M3552.93,911.713a7.8,7.8,0,0,0,1.139-.123,4.891,4.891,0,0,0,2.14-.864,3.062,3.062,0,0,0,1.239-2.048l-.048,0a3.751,3.751,0,0,1-2.4.968c-1.888.142-3.167-.759-3.26-2-.1-1.381,1.24-2.7,3.381-2.856s3.556.95,3.694,2.816a3.991,3.991,0,0,1-1.548,3.554,6.4,6.4,0,0,1-2.973,1.205,9.465,9.465,0,0,1-1.3.154Zm2.113-6.165a1.86,1.86,0,0,0-1.909,1.925c.067.913.9,1.491,2.127,1.4a2.706,2.706,0,0,0,2-.916.491.491,0,0,0,.1-.366,2,2,0,0,0-2.308-2.042Z" transform="translate(-3475.64 -842.612)" fill="#f4f5f5"/><path d="M3638.023,850.435c.186,2.475-1.033,3.942-3.35,4.114-2.047.154-3.533-1.076-3.745-3.487a3.466,3.466,0,0,1,3.356-4.065C3636.489,846.831,3637.849,848.111,3638.023,850.435Zm-5.677.529c.141,1.9,1.06,2.915,2.349,2.819,1.448-.108,2.051-1.334,1.911-3.2-.134-1.792-.879-2.918-2.344-2.81C3633.023,847.861,3632.2,848.984,3632.346,850.964Z" transform="translate(-3538.796 -796.517)" fill="#f4f5f5"/></g><path d="M3260.723,584.041c-27.307-10.146-62.432-2.4-78.451,17.3s-6.859,43.878,20.45,54.021,62.43,2.4,78.448-17.295S3288.032,594.182,3260.723,584.041Zm-14.947,4.993c2.649-3.259,8.457-4.538,12.97-2.863s6.029,5.679,3.382,8.938-8.458,4.535-12.972,2.853S3243.127,592.287,3245.776,589.035ZM3185.22,602.6c2.649-3.253,8.457-4.535,12.969-2.856s6.033,5.676,3.382,8.935-8.455,4.532-12.968,2.859S3182.571,605.856,3185.22,602.6Zm-7.281,19.057c.035-3.659,4.306-6.764,9.542-6.945s9.449,2.653,9.417,6.312-4.312,6.761-9.547,6.94S3177.9,625.315,3177.939,621.656Zm7.126,18.531c-2.585-3.081-.99-7.186,3.557-9.166s10.337-1.094,12.926,1.992.99,7.179-3.559,9.163S3187.655,643.268,3185.065,640.187Zm32.6,10.18c-2.649,3.253-8.457,4.532-12.97,2.859s-6.03-5.676-3.382-8.929,8.455-4.538,12.973-2.865S3220.315,647.108,3217.668,650.368Zm-3.337-51.082c-4.555,1.98-10.34,1.088-12.924-1.99s-1-7.185,3.556-9.169,10.338-1.085,12.924,2S3218.879,597.3,3214.33,599.285Zm26.782,51.054c-.039,3.659-4.308,6.767-9.544,6.943s-9.448-2.648-9.415-6.306,4.309-6.764,9.546-6.943S3241.144,646.681,3241.112,650.34Zm-9.367-54.975c-5.235.175-9.448-2.647-9.412-6.306s4.306-6.764,9.542-6.943,9.448,2.644,9.413,6.309S3236.978,595.19,3231.745,595.365Zm26.736,55.9c-4.553,1.983-10.337,1.092-12.924-1.989s-.993-7.179,3.559-9.162,10.334-1.092,12.923,1.986S3263.032,649.285,3258.48,651.268Zm19.742-14.469c-2.65,3.25-8.455,4.535-12.972,2.859s-6.027-5.679-3.377-8.935,8.455-4.532,12.969-2.859S3280.873,633.543,3278.223,636.8Z" transform="translate(-3016.666 -500.685)" fill="#f4f4f4"/><path d="M3260.168,576.618c-27.307-10.143-62.432-2.4-78.451,17.292s-6.861,43.885,20.449,54.028,62.431,2.4,78.448-17.295S3287.476,586.761,3260.168,576.618Zm-14.948,4.993c2.649-3.256,8.456-4.538,12.97-2.862s6.03,5.682,3.382,8.935-8.458,4.535-12.973,2.86S3242.572,584.867,3245.221,581.611Zm-60.555,13.568c2.646-3.259,8.456-4.538,12.968-2.86s6.032,5.676,3.382,8.935-8.456,4.532-12.969,2.86S3182.015,598.436,3184.666,595.18Zm-7.284,19.054c.037-3.659,4.308-6.767,9.544-6.943s9.447,2.647,9.417,6.306-4.312,6.765-9.547,6.946S3177.347,617.889,3177.382,614.233Zm7.129,18.531c-2.586-3.081-.992-7.189,3.557-9.169s10.337-1.085,12.926,1.992.99,7.183-3.559,9.166S3187.1,635.845,3184.511,632.764Zm32.6,10.18c-2.649,3.253-8.457,4.535-12.97,2.857s-6.031-5.676-3.384-8.929,8.457-4.535,12.975-2.863S3219.76,639.688,3217.113,642.944Zm-3.339-51.079c-4.554,1.98-10.34,1.085-12.923-1.992s-1-7.185,3.556-9.166,10.338-1.091,12.923,1.99S3218.324,589.885,3213.773,591.865Zm26.784,51.051c-.038,3.653-4.308,6.767-9.544,6.943s-9.448-2.647-9.413-6.3,4.307-6.768,9.543-6.946S3240.589,639.258,3240.557,642.916Zm-9.367-54.974c-5.235.175-9.449-2.65-9.412-6.3s4.306-6.767,9.542-6.943,9.448,2.644,9.411,6.3S3236.423,587.773,3231.19,587.942Zm26.735,55.9c-4.553,1.983-10.338,1.091-12.923-1.986s-.995-7.185,3.555-9.169,10.336-1.088,12.925,1.992S3262.476,641.865,3257.926,643.845Zm19.742-14.469c-2.651,3.25-8.456,4.535-12.974,2.859s-6.025-5.676-3.376-8.938,8.453-4.535,12.969-2.856S3280.318,626.114,3277.668,629.376Z" transform="translate(-3016.223 -494.765)" fill="#4dec8c"/><path d="M3362.451,657.425c-12.843-5.027-29.324-1.282-36.819,8.366s-3.15,21.55,9.694,26.574,29.326,1.282,36.814-8.369S3375.293,662.449,3362.451,657.425Z" transform="translate(-3134.377 -560.995)" fill="#fff"/><path d="M3364.168,656.929c-12.429-4.172-28.473-.83-35.834,7.465s-3.253,18.4,9.176,22.577,28.469.83,35.829-7.468S3376.6,661.1,3364.168,656.929Z" transform="translate(-3136.542 -560.948)" fill="#4dec8c"/><path d="M3338.217,671.491c6.79-7.662,21.6-10.743,33.068-6.89,6.912,2.319,11.009,6.632,11.71,11.361-.028-5.27-4.228-10.207-11.815-12.756-11.468-3.85-26.277-.766-33.068,6.89-2.7,3.041-3.7,6.343-3.242,9.467A12.042,12.042,0,0,1,3338.217,671.491Z" transform="translate(-3144.585 -566.065)" fill="#f4f5f5"/><path d="M3627.251,760.975c-2.211-.947-3.235.031-3.153,1.1s2.01,1.525,2.834,1.833c4.857,1.845,13.137,2.9,19.725.433a28.666,28.666,0,0,0,.978-8.065C3645.359,755.693,3637.265,765.264,3627.251,760.975Z" transform="translate(-3375.364 -641.605)" fill="#349e5e"/><path d="M3650.444,747.489c-.7-4.317-9.6,8.7-20.977,3.838-2.217-.953-3.237.028-3.158,1.1s2.009,1.528,2.835,1.836c5,1.9,13.633,2.98,20.311.215l-.221,2.823s.76,1.054.967-.074A44.089,44.089,0,0,0,3650.444,747.489Z" transform="translate(-3377.128 -633.902)" fill="#f4f4f4"/><path d="M3651.216,743.713c-.7-4.323-9.606,8.7-20.982,3.831-2.212-.947-3.238.031-3.157,1.1s2.014,1.525,2.837,1.838c5,1.894,13.636,2.976,20.311.206,1.106-.351.354,4.025.354,4.025s.226.065.389-1.27A52.808,52.808,0,0,0,3651.216,743.713Z" transform="translate(-3377.74 -630.89)" fill="#349e5e"/></g><g transform="translate(329.805 216.194)"><path d="M4052.822,1258.027s2.655,33.206-28.1,37.883c0,0,20.247.7,26.588-10.586S4052.822,1258.027,4052.822,1258.027Z" transform="translate(-4024.719 -1258.027)" fill="#929497"/><path d="M4116.837,1318.982s1.911,23.9-20.226,27.26c0,0,14.569.5,19.134-7.619S4116.837,1318.982,4116.837,1318.982Z" transform="translate(-4082.063 -1306.646)" fill="#929497"/></g><g transform="translate(322.01 60.198)"><path d="M3986.2,520.646s43.291-1.574,49.588-33.452a31.454,31.454,0,0,1-15.349,28.729A42.946,42.946,0,0,1,3986.2,520.646Z" transform="translate(-3986.202 -487.194)" fill="#929497"/><path d="M4071.4,595.707s29.7-1.079,34.015-22.946a21.578,21.578,0,0,1-10.529,19.708A29.46,29.46,0,0,1,4071.4,595.707Z" transform="translate(-4054.162 -555.445)" fill="#929497"/></g><path d="M2690.47,605.844s-8.35-29.141,8.113-47.03a29.907,29.907,0,0,0-15.858,22.082C2680,597.241,2690.47,605.844,2690.47,605.844Z" transform="translate(-2624.141 -484.122)" fill="#929497"/></g><path d="M3151.815,1086.664l169.591-12.216s-50.542,6.228-84.076,8.863S3151.815,1086.664,3151.815,1086.664Z" transform="translate(-603.635 -776.803)" fill="#f4f5f5"/><path d="M3370.726,101.147s-48.865-5.908-115.935,19.642C3254.791,120.789,3307.808,100.508,3370.726,101.147Z" transform="translate(-685.771 0)" fill="#f4f5f5"/></g></svg>