<svg xmlns="http://www.w3.org/2000/svg" width="20.915" height="16.993" viewBox="0 0 20.915 16.993"><path d="M20.915,50.012a8.939,8.939,0,0,1-2.471.677,4.264,4.264,0,0,0,1.886-2.37,8.569,8.569,0,0,1-2.719,1.038,4.287,4.287,0,0,0-7.417,2.932,4.415,4.415,0,0,0,.1.978,12.137,12.137,0,0,1-8.838-4.485,4.289,4.289,0,0,0,1.318,5.731,4.234,4.234,0,0,1-1.937-.528v.047a4.307,4.307,0,0,0,3.435,4.213,4.28,4.28,0,0,1-1.124.141,3.792,3.792,0,0,1-.812-.073A4.329,4.329,0,0,0,6.342,61.3a8.615,8.615,0,0,1-5.316,1.829A8.03,8.03,0,0,1,0,63.069a12.071,12.071,0,0,0,6.578,1.924,12.12,12.12,0,0,0,12.2-12.2c0-.19-.007-.373-.016-.554A8.554,8.554,0,0,0,20.915,50.012Z" transform="translate(0 -48)" fill="#fff"/></svg>